<svg width="402" height="93" viewBox="0 0 402 93" fill="none" xmlns="http://www.w3.org/2000/svg">
<path d="M152.762 30.3694C148.942 28.7794 145.002 28.2694 140.842 28.2594C133.382 28.2394 126.382 31.2594 121.472 36.9194C114.162 28.2194 102.712 26.6094 92.3217 29.6494C81.2517 33.1794 74.6917 42.8594 74.2017 54.3494V91.3394H90.0016V54.1494C90.3816 49.1094 93.7317 45.1394 98.6017 44.0494C100.612 43.5994 102.592 43.6094 104.642 43.8894C108.282 44.3794 111.272 46.7794 112.452 50.2894C112.952 51.7794 113.322 53.3294 113.322 54.9794V91.3294H129.132L129.222 54.2194C129.232 49.5694 132.472 45.9094 136.482 44.4294C138.662 43.6294 140.752 43.6094 143.032 43.7894C147.142 44.0994 150.542 46.6994 151.832 50.6294C152.412 52.4094 152.572 54.1694 152.602 56.1194V91.3294L168.422 91.3194V55.4394C168.292 44.2894 163.362 34.6394 152.762 30.3494V30.3694Z" fill="black"/>
<path d="M233.632 41.3792C227.702 32.8792 217.942 28.2392 207.642 28.3392C197.442 28.4392 187.922 33.2192 182.132 41.6392C178.122 47.4692 176.262 54.3192 176.392 61.4492C176.542 70.4492 180.302 79.0392 186.872 85.1192C194.812 92.4692 206.002 94.6692 216.082 90.7792C219.352 89.5192 222.032 87.5892 224.542 85.0192L224.632 91.3492H239.572L239.492 59.1192C239.472 52.7192 237.242 46.5492 233.622 41.3792H233.632ZM217.192 74.6192C211.672 79.0192 204.212 78.9992 198.732 74.6892C190.162 67.9392 190.112 54.2292 197.922 47.0592C203.542 41.8992 211.852 41.7892 217.592 46.7692C225.822 53.9192 225.972 67.6092 217.192 74.6192Z" fill="black"/>
<path d="M57.3016 41.4194C51.3716 32.9594 41.6616 28.2494 31.3516 28.3394C21.1916 28.4194 11.6916 33.1194 5.87157 41.4794C1.98157 47.0594 0.0715161 53.5994 0.0015161 60.4494C-0.0884839 70.0294 3.83153 79.2094 10.9515 85.5294C19.1115 92.7794 30.5715 94.7094 40.5915 90.3994C43.5115 89.1494 45.8215 87.3594 48.1915 84.9994L48.2916 91.3294H63.2215V60.8494C63.2215 53.8194 61.3016 47.1094 57.3016 41.4094V41.4194ZM45.7515 68.2794C43.8615 72.4294 40.5715 75.6594 36.1415 77.1594C31.0015 78.8994 25.6216 77.5894 21.6616 74.0994C13.8616 67.2294 13.9816 54.2994 21.3016 47.2794C27.3716 41.4594 36.6415 41.7694 42.4115 47.8894C47.5015 53.2894 48.8715 61.4494 45.7515 68.2794Z" fill="black"/>
<path d="M300.522 43.9693L300.532 29.8093H249.192V44.0393L280.272 44.0593L247.852 77.6993V91.3393H301.612V77.1093L268.742 77.0793L300.522 43.9693Z" fill="black"/>
<path d="M312.332 12.9393C310.482 17.0293 309.702 21.3093 309.572 25.8993V91.3493H325.382V45.1493L334.722 45.1293V29.9093L325.392 29.8893L325.412 25.4493C325.412 23.6593 325.742 21.8793 326.292 20.1993C327.912 15.2293 332.522 14.1293 337.202 14.3193V0.249332C326.762 -1.11067 316.792 3.08933 312.342 12.9393H312.332Z" fill="black"/>
<path d="M401.162 77.5294C399.092 77.6094 397.212 77.5094 395.322 76.9494C390.802 75.4694 389.622 71.7794 389.362 67.3394V43.8394L400.432 43.8294V29.7994H389.362V14.1794H373.532V67.9494C373.802 72.4494 374.642 76.6394 376.642 80.5894C381.452 90.0994 391.192 93.0994 401.162 91.8294V77.5094V77.5294Z" fill="black"/>
<path d="M345.731 29.7993V91.3493L361.891 91.3193V29.8193L345.731 29.7993Z" fill="black"/>
</svg>
