<svg width="277" height="96" viewBox="0 0 277 96" fill="none" xmlns="http://www.w3.org/2000/svg">
<path d="M103.896 83.0303C105.695 83.0303 107.096 83.4503 108.096 84.2803C109.095 85.1102 109.596 86.2607 109.596 87.7305C109.596 88.6902 109.375 89.5199 108.915 90.2197C108.465 90.9197 107.815 91.4503 106.976 91.8203H106.985C106.975 91.8302 106.955 91.8301 106.955 91.8301L109.846 95.9805H106.605L104.115 92.3701H101.365V95.9805H98.3652V83.0303H103.896ZM123.145 85.4404H116.335V88.25H122.345V90.5801H116.335V93.5801H123.385V95.9805H113.354V83.0303H123.145V85.4404ZM139.975 95.9805H136.825L135.675 93.2002H129.675L128.525 95.9805H125.455L131.225 83.0303H134.186L139.975 95.9805ZM145.715 93.54H152.205V95.9805H142.715V83.0303H145.715V93.54ZM163.715 85.4805H159.575V95.9805H156.575V85.4805H152.425V83.0303H163.715V85.4805ZM171.314 88.7803L174.774 83.0303H177.725L172.685 91.4004V95.9805H169.694V91.3701L164.675 83.0303H167.854L171.314 88.7803ZM130.625 90.9297H134.735L132.686 85.9697L130.625 90.9297ZM93.5049 89.1797V90.4199H21.125V89.1797H93.5049ZM255.114 90.4199H181.225V89.1797H255.114V90.4199ZM101.375 90H103.815C104.735 90 105.425 89.8001 105.885 89.4004C106.335 89.0004 106.565 88.4601 106.565 87.7402C106.565 87.0202 106.345 86.4603 105.885 86.0703V86.0801C105.435 85.6902 104.745 85.4903 103.815 85.4902H101.375V90ZM242.854 0C243.054 0.13 243.275 0.100352 243.495 0.110352C245.495 0.22037 247.465 0.499999 249.415 0.959961C260.035 3.47004 268.804 10.7203 273.234 20.6602C274.954 24.5301 275.995 28.5703 276.125 32.8203L276.114 32.8301C276.114 33.05 276.145 33.2598 276.215 33.4697V36.0898C276.135 36.3198 276.104 36.5503 276.104 36.7803C276.095 37.1902 276.104 37.5903 276.064 37.9902C275.844 40.1902 275.444 42.3701 274.824 44.5C270.684 58.6999 257.845 68.87 242.975 69.46C242.725 69.47 242.465 69.4498 242.225 69.5498H240.715C240.505 69.4598 240.284 69.46 240.064 69.46C238.875 69.42 237.685 69.3096 236.505 69.1396C233.695 68.7496 230.984 68.0102 228.354 66.9502C228.045 66.8302 227.925 66.68 227.925 66.3301C227.935 61.4902 227.935 56.6602 227.935 51.8203C227.935 51.7203 227.885 51.59 228.005 51.5C228.185 51.5401 228.285 51.6803 228.415 51.7803C233.565 55.83 239.385 57.2497 245.795 55.9297C256.915 53.6396 264.055 42.5802 261.715 31.4404C259.485 20.8204 249.165 13.2704 237.765 15.3604C231.045 16.5904 226.115 20.3904 222.955 26.4404C221.445 29.3404 220.745 32.4701 220.745 35.75V62.6504C217.175 59.9604 214.284 56.8196 211.984 53.1396C209.675 49.4598 208.135 45.4698 207.305 41.1699C207.225 41.2499 207.175 41.26 207.175 41.29C207.145 41.37 207.134 41.4503 207.114 41.5303C206.694 43.6602 206.075 45.7303 205.265 47.7402C200.145 60.41 188.035 68.9403 174.455 69.4404C174.255 69.4504 174.054 69.4303 173.864 69.5303H172.255C172.075 69.4403 171.865 69.4504 171.665 69.4404C171.075 69.4104 170.494 69.3801 169.904 69.3301C166.524 69.0301 163.254 68.2404 160.104 66.9805C148.654 62.4005 140.355 51.8397 138.685 39.7197C138.625 39.2198 138.615 38.7196 138.455 38.2197C138.365 38.3397 138.374 38.4701 138.364 38.5801C138.124 40.55 137.755 42.4904 137.205 44.4004C133.115 58.5802 120.275 68.8497 105.305 69.4297C105.075 69.4397 104.834 69.4195 104.614 69.5195H103.005C102.835 69.4296 102.645 69.4297 102.465 69.4297C101.525 69.3997 100.584 69.32 99.6543 69.21C96.3744 68.8199 93.2342 67.9596 90.1943 66.6797C89.8747 66.5497 89.7949 66.3699 89.7949 66.04V51.8301C89.7949 51.7002 89.7345 51.5599 89.8643 51.46C90.0143 51.5 90.1051 51.6104 90.2051 51.6904C95.315 55.7401 101.095 57.1999 107.475 55.9199C118.615 53.6899 126.205 42.5899 123.435 30.8799C120.905 20.17 110.434 13.3203 99.6143 15.3203C92.9145 16.5604 87.9744 20.3305 84.8145 26.3604C83.3046 29.2503 82.5947 32.3502 82.5947 35.6201V61.5195C82.5947 61.7195 82.6242 61.9204 82.5342 62.1904C78.8443 59.3105 75.8747 55.88 73.5947 51.8701C71.3048 47.8502 69.9044 43.5303 69.2744 38.9404C69.2146 39.0303 69.1946 39.1105 69.1846 39.1904C68.9146 41.1603 68.5048 43.0904 67.9248 44.9902C63.6348 58.9201 50.9246 68.8604 36.2246 69.4404C35.9946 69.4504 35.7542 69.4203 35.5342 69.5303H33.9248C33.6748 69.4203 33.4047 69.4404 33.1348 69.4404C30.7048 69.3504 28.3246 68.9801 25.9746 68.3701C9.13461 63.9701 -2.30547 47.5795 0.394531 29.5195C1.14455 24.5498 2.91451 19.9601 5.6543 15.7803C7.7943 12.5203 10.4151 9.70031 13.4951 7.32031C13.645 7.21034 13.7746 7.04014 14.0244 7.04004V34.9297C14.0244 36.3496 14.1746 37.7499 14.4746 39.1299C16.8646 50.2098 27.6745 57.2895 38.7744 55.0996C47.4743 53.3796 54.7344 45.9702 55.3945 36.1504C55.6045 32.9504 55.0943 29.8596 53.8643 26.8896C50.2141 18.0599 40.9242 12.8396 31.4844 14.3496C27.8445 14.9296 24.575 16.3803 21.7051 18.7002C21.5651 18.8102 21.4547 18.9699 21.2148 19V3.25C21.2148 2.76 21.135 2.82035 21.665 2.61035C25.195 1.18041 28.8651 0.359878 32.665 0.129883C32.9149 0.109951 33.1645 0.139416 33.4043 0.0195312H36.0244C36.2244 0.119531 36.445 0.110117 36.665 0.120117C38.1749 0.200126 39.6852 0.370182 41.165 0.660156C48.3449 2.0602 54.5251 5.34972 59.625 10.5996C64.6849 15.7996 67.8051 22.0098 68.9951 29.1797C69.0751 29.6397 69.1446 30.1101 69.2246 30.5801C69.3346 30.3802 69.3743 30.1901 69.4043 29.9902C69.5743 28.6702 69.835 27.3698 70.165 26.0898C73.8951 11.64 86.6149 0.940347 101.885 0.110352C102.085 0.100365 102.295 0.119744 102.475 0.00976562H105.194C105.374 0.129679 105.584 0.100416 105.784 0.110352C107.294 0.200343 108.804 0.370204 110.284 0.660156C117.414 2.05015 123.555 5.3098 128.635 10.5098C133.875 15.8698 137.055 22.29 138.175 29.71C138.255 30.2398 138.324 30.7597 138.404 31.3096C138.514 31.1996 138.505 31.1 138.515 31C138.735 29.3 139.015 27.62 139.455 25.96C142.375 14.96 150.345 6.17019 161.015 2.2002C161.428 2.04688 161.635 2.18997 161.635 2.62988V36.79C161.635 37.97 161.685 39.1399 161.895 40.2998C162.615 44.3197 164.424 47.7899 167.364 50.6299C171.414 54.5499 176.325 56.2198 181.915 56.0098C182.175 55.9997 182.255 55.8995 182.255 55.6396V49.3398C182.255 48.98 182.245 48.98 181.885 48.96C181.025 48.92 180.185 48.8103 179.345 48.6104C173.435 47.2304 169.015 41.8702 169.045 35.5703V29.2695C169.055 28.42 168.925 28.5303 169.805 28.5303H179.935C180.424 28.5303 180.425 28.53 180.425 28.0703V21.5703C180.425 21.1203 180.414 21.1096 179.984 21.0996H169.705C168.935 21.0996 169.045 21.1 169.045 20.4502V0.650391C169.055 0.300502 169.055 0.279984 169.404 0.25C169.974 0.190014 170.544 0.150342 171.114 0.110352C171.324 0.100352 171.555 0.109766 171.755 0.00976562H174.375C174.525 0.109592 174.694 0.10039 174.864 0.110352C175.304 0.140352 175.735 0.169961 176.175 0.209961C179.535 0.489967 182.765 1.26983 185.895 2.50977C196.825 6.84976 204.815 16.44 207.135 27.96C207.165 28.09 207.115 28.2701 207.335 28.3301C207.385 28.1102 207.425 27.9003 207.475 27.6904C207.525 27.4604 207.565 27.23 207.625 27C210.045 17.12 215.645 9.60952 224.455 4.51953C228.755 2.02972 233.425 0.630411 238.385 0.19043C239.005 0.13045 239.634 0.179908 240.234 0H242.854ZM241.425 22.21C248.915 22.1801 254.984 28.2205 254.984 35.6904C254.994 43.2703 248.774 49.1804 241.494 49.1904V49.2002C234.394 49.2099 228.035 43.5198 227.975 35.71C228.015 28.13 234.095 22.24 241.425 22.21ZM103.325 22.21C110.765 22.2101 116.805 28.2798 116.795 35.7295C116.785 43.2695 110.585 49.2397 103.265 49.1797C95.7948 49.1695 89.7949 43.1398 89.7949 35.6699C89.8049 28.2299 95.8652 22.21 103.325 22.21ZM34.7354 21.2803C42.2054 21.2803 48.2354 27.3105 48.2354 34.7705L48.2256 34.7803C48.2255 42.2301 42.1854 48.2596 34.7256 48.2598C27.2657 48.2598 21.2356 42.2303 21.2354 34.7705C21.2354 27.3105 27.2754 21.2803 34.7354 21.2803Z" fill="black"/>
</svg>
