<svg width="277" height="96" viewBox="0 0 277 96" fill="none" xmlns="http://www.w3.org/2000/svg">
<path d="M103.896 83.0303C105.695 83.0303 107.096 83.4503 108.096 84.2803C109.096 85.1102 109.596 86.2607 109.596 87.7305C109.596 88.6902 109.375 89.5199 108.915 90.2197C108.465 90.9197 107.816 91.4503 106.976 91.8203H106.985C106.975 91.8302 106.955 91.8301 106.955 91.8301L109.846 95.9805H106.606L104.115 92.3701H101.365V95.9805H98.3653V83.0303H103.896ZM123.145 85.4404H116.335V88.25H122.345V90.5801H116.335V93.5801H123.385V95.9805H113.355V83.0303H123.145V85.4404ZM139.975 95.9805H136.825L135.675 93.2002H129.675L128.525 95.9805H125.455L131.225 83.0303H134.186L139.975 95.9805ZM145.715 93.54H152.205V95.9805H142.715V83.0303H145.715V93.54ZM163.715 85.4805H159.575V95.9805H156.575V85.4805H152.425V83.0303H163.715V85.4805ZM171.315 88.7803L174.775 83.0303H177.725L172.685 91.4004V95.9805H169.694V91.3701L164.675 83.0303H167.855L171.315 88.7803ZM130.625 90.9297H134.735L132.686 85.9697L130.625 90.9297ZM93.505 89.1797V90.4199H21.1251V89.1797H93.505ZM255.114 90.4199H181.225V89.1797H255.114V90.4199ZM101.375 90H103.816C104.735 90 105.425 89.8001 105.885 89.4004C106.335 89.0004 106.565 88.4601 106.566 87.7402C106.566 87.0202 106.345 86.4603 105.885 86.0703V86.0801C105.435 85.6902 104.745 85.4903 103.816 85.4902H101.375V90ZM242.855 0C243.055 0.13 243.275 0.100352 243.495 0.110352C245.495 0.22037 247.465 0.499999 249.415 0.959961C260.035 3.47004 268.805 10.7203 273.234 20.6602C274.954 24.5301 275.995 28.5703 276.125 32.8203L276.114 32.8301C276.114 33.05 276.145 33.2598 276.215 33.4697V36.0898C276.135 36.3198 276.105 36.5503 276.105 36.7803C276.095 37.1902 276.105 37.5903 276.065 37.9902C275.845 40.1902 275.444 42.3701 274.824 44.5C270.684 58.6999 257.845 68.87 242.975 69.46C242.725 69.47 242.465 69.4498 242.225 69.5498H240.715C240.505 69.4598 240.285 69.46 240.065 69.46C238.875 69.42 237.685 69.3096 236.505 69.1396C233.695 68.7496 230.985 68.0102 228.355 66.9502C228.045 66.8302 227.925 66.68 227.925 66.3301C227.935 61.4902 227.935 56.6602 227.935 51.8203C227.935 51.7203 227.885 51.59 228.005 51.5C228.185 51.5401 228.285 51.6803 228.415 51.7803C233.565 55.83 239.385 57.2497 245.795 55.9297C256.915 53.6396 264.055 42.5802 261.715 31.4404C259.485 20.8204 249.165 13.2704 237.765 15.3604C231.045 16.5904 226.115 20.3904 222.955 26.4404C221.445 29.3404 220.745 32.4701 220.745 35.75V62.6504C217.175 59.9604 214.284 56.8196 211.984 53.1396C209.675 49.4598 208.135 45.4698 207.305 41.1699C207.225 41.2499 207.175 41.26 207.175 41.29C207.145 41.37 207.134 41.4503 207.114 41.5303C206.694 43.6602 206.075 45.7303 205.265 47.7402C200.145 60.41 188.035 68.9403 174.455 69.4404C174.255 69.4504 174.054 69.4303 173.864 69.5303H172.255C172.075 69.4403 171.865 69.4504 171.665 69.4404C171.075 69.4104 170.494 69.3801 169.904 69.3301C166.525 69.0301 163.254 68.2404 160.105 66.9805C148.655 62.4005 140.355 51.8397 138.685 39.7197C138.625 39.2198 138.615 38.7196 138.455 38.2197C138.365 38.3397 138.374 38.4701 138.364 38.5801C138.124 40.55 137.755 42.4904 137.205 44.4004C133.115 58.5802 120.275 68.8497 105.305 69.4297C105.075 69.4397 104.834 69.4195 104.614 69.5195H103.005C102.835 69.4296 102.645 69.4297 102.465 69.4297C101.525 69.3997 100.584 69.32 99.6544 69.21C96.3745 68.8199 93.2343 67.9596 90.1944 66.6797C89.8748 66.5497 89.795 66.3699 89.795 66.04V51.8301C89.795 51.7002 89.7346 51.5599 89.8644 51.46C90.0144 51.5 90.1052 51.6104 90.2052 51.6904C95.3151 55.7401 101.095 57.1999 107.475 55.9199C118.615 53.6899 126.205 42.5899 123.435 30.8799C120.905 20.17 110.434 13.3203 99.6144 15.3203C92.9146 16.5604 87.9745 20.3305 84.8146 26.3604C83.3047 29.2503 82.5948 32.3502 82.5948 35.6201V61.5195C82.5948 61.7195 82.6243 61.9204 82.5343 62.1904C78.8444 59.3105 75.8748 55.88 73.5948 51.8701C71.3049 47.8502 69.9045 43.5303 69.2745 38.9404C69.2147 39.0303 69.1947 39.1105 69.1847 39.1904C68.9147 41.1603 68.5049 43.0904 67.9249 44.9902C63.6349 58.9201 50.9247 68.8604 36.2247 69.4404C35.9947 69.4504 35.7543 69.4203 35.5343 69.5303H33.9249C33.6749 69.4203 33.4048 69.4404 33.1349 69.4404C30.7049 69.3504 28.3247 68.9801 25.9747 68.3701C9.13471 63.9701 -2.30537 47.5795 0.39463 29.5195C1.14465 24.5498 2.91461 19.9601 5.6544 15.7803C7.7944 12.5203 10.4152 9.70031 13.4952 7.32031C13.6451 7.21034 13.7747 7.04014 14.0245 7.04004V34.9297C14.0245 36.3496 14.1747 37.7499 14.4747 39.1299C16.8647 50.2098 27.6746 57.2895 38.7745 55.0996C47.4744 53.3796 54.7345 45.9702 55.3946 36.1504C55.6046 32.9504 55.0944 29.8596 53.8644 26.8896C50.2142 18.0599 40.9243 12.8396 31.4845 14.3496C27.8446 14.9296 24.5751 16.3803 21.7052 18.7002C21.5652 18.8102 21.4548 18.9699 21.2149 19V3.25C21.2149 2.76 21.1351 2.82035 21.6651 2.61035C25.1951 1.18041 28.8652 0.359878 32.6651 0.129883C32.915 0.109951 33.1646 0.139416 33.4044 0.0195312H36.0245C36.2245 0.119531 36.4451 0.110117 36.6651 0.120117C38.175 0.200126 39.6853 0.370182 41.1651 0.660156C48.345 2.0602 54.5252 5.34972 59.6251 10.5996C64.685 15.7996 67.8052 22.0098 68.9952 29.1797C69.0752 29.6397 69.1447 30.1101 69.2247 30.5801C69.3347 30.3802 69.3744 30.1901 69.4044 29.9902C69.5744 28.6702 69.8351 27.3698 70.1651 26.0898C73.8952 11.64 86.615 0.940347 101.885 0.110352C102.085 0.100365 102.295 0.119744 102.475 0.00976562H105.194C105.374 0.129679 105.584 0.100416 105.784 0.110352C107.294 0.200343 108.804 0.370204 110.284 0.660156C117.414 2.05015 123.555 5.3098 128.635 10.5098C133.875 15.8698 137.055 22.29 138.175 29.71C138.255 30.2398 138.324 30.7597 138.404 31.3096C138.514 31.1996 138.505 31.1 138.515 31C138.735 29.3 139.015 27.62 139.455 25.96C142.375 14.96 150.345 6.17019 161.015 2.2002C161.428 2.04688 161.635 2.18997 161.635 2.62988V36.79C161.635 37.97 161.685 39.1399 161.895 40.2998C162.615 44.3197 164.425 47.7899 167.364 50.6299C171.414 54.5499 176.325 56.2198 181.915 56.0098C182.175 55.9997 182.255 55.8995 182.255 55.6396V49.3398C182.255 48.98 182.245 48.98 181.885 48.96C181.025 48.92 180.185 48.8103 179.345 48.6104C173.435 47.2304 169.015 41.8702 169.045 35.5703V29.2695C169.055 28.42 168.925 28.5303 169.805 28.5303H179.935C180.425 28.5303 180.425 28.53 180.425 28.0703V21.5703C180.425 21.1203 180.414 21.1096 179.984 21.0996H169.705C168.935 21.0996 169.045 21.1 169.045 20.4502V0.650391C169.055 0.300502 169.055 0.279984 169.404 0.25C169.974 0.190014 170.544 0.150342 171.114 0.110352C171.324 0.100352 171.555 0.109766 171.755 0.00976562H174.375C174.525 0.109592 174.695 0.10039 174.864 0.110352C175.304 0.140352 175.735 0.169961 176.175 0.209961C179.535 0.489967 182.765 1.26983 185.895 2.50977C196.825 6.84976 204.815 16.44 207.135 27.96C207.165 28.09 207.115 28.2701 207.335 28.3301C207.385 28.1102 207.425 27.9003 207.475 27.6904C207.525 27.4604 207.565 27.23 207.625 27C210.045 17.12 215.645 9.60952 224.455 4.51953C228.755 2.02972 233.425 0.630411 238.385 0.19043C239.005 0.13045 239.635 0.179908 240.234 0H242.855ZM241.425 22.21C248.915 22.1801 254.984 28.2205 254.984 35.6904C254.994 43.2703 248.774 49.1804 241.494 49.1904V49.2002C234.394 49.2099 228.035 43.5198 227.975 35.71C228.015 28.13 234.095 22.24 241.425 22.21ZM103.325 22.21C110.765 22.2101 116.805 28.2798 116.795 35.7295C116.785 43.2695 110.585 49.2397 103.265 49.1797C95.7949 49.1695 89.795 43.1398 89.795 35.6699C89.805 28.2299 95.8653 22.21 103.325 22.21ZM34.7355 21.2803C42.2055 21.2803 48.2355 27.3105 48.2355 34.7705L48.2257 34.7803C48.2256 42.2301 42.1855 48.2596 34.7257 48.2598C27.2658 48.2598 21.2357 42.2303 21.2355 34.7705C21.2355 27.3105 27.2755 21.2803 34.7355 21.2803Z" fill="white"/>
</svg>
