<svg width="227" height="203" viewBox="0 0 227 203" fill="none" xmlns="http://www.w3.org/2000/svg">
<path d="M133.44 169.39C131.93 167.74 129.66 167.55 127.51 167.55C125.24 167.55 123.13 167.88 120.24 169.84C123.86 160.84 129.57 148.53 129.63 148.4L129.91 147.8L129.25 147.86C129.25 147.86 125.76 148.22 118.8 149.86L118.6 149.91L118.09 151.31L103.57 189.14C103.57 189.14 102.51 191.43 99.3398 193.27C97.6798 194.23 96.7498 194.35 96.1998 194.43C95.6698 194.53 95.5198 194.02 95.5898 193.84C96.0098 192.68 97.1898 189.46 97.1898 189.46C100.71 179.61 102.89 173.67 103.87 171.32L105.15 168.24H95.5698C95.5698 168.24 95.3998 168.55 95.3398 168.66C94.2398 168 92.9398 167.61 91.4298 167.61C89.2998 167.61 86.5698 168.82 82.8198 171.43C78.9698 174.14 75.6498 177.29 72.9498 180.8C69.5898 185.24 67.8799 189.69 67.8799 194C67.8799 195.99 68.3399 197.72 69.2599 199.14C70.0199 200.33 71.5098 201.76 74.3198 201.76C77.9698 201.76 81.4898 200.4 84.8198 197.8C85.0798 198.69 85.6298 199.51 86.6698 200.25C88.0398 201.23 89.9599 201.71 90.7299 201.75C91.4999 201.79 94.3599 201.65 96.8899 200.35C99.0299 199.25 100.36 197.82 101.56 195.98C102.18 197.49 103 198.76 104.01 199.77C105.33 201.09 107 201.76 108.96 201.76C114.45 201.76 120.21 199.05 126.08 193.73C132.42 187.99 135.64 181.77 135.64 175.23C135.64 172.95 134.91 170.99 133.46 169.38L133.44 169.39ZM120.46 189.1C116.72 194.65 115.49 194.98 114.17 195.09C113.41 195.15 112.86 194.92 112.43 194.54C112.18 194.32 111.9 193.89 111.94 193.29C111.94 193.29 112.02 192.57 112.09 192.28C112.17 191.99 113.2 188.36 114.9 184.5C116.61 180.64 117.29 179.67 118.6 178.12C120.8 175.53 123.22 174.45 124.44 175.12C126.82 176.44 123.32 184.84 120.46 189.1ZM78.9398 194.47C76.9798 193.52 78.5099 189.24 81.8999 183.12C84.6599 178.13 87.4099 175.61 90.0099 175.61C90.3299 175.61 90.6899 175.68 91.1499 176.19C91.5699 176.66 91.7599 177.11 91.7599 177.6C91.7599 178.97 91.0299 181.76 87.5199 187.23C84.4399 192.03 80.5498 195.25 78.9498 194.47" fill="white"/>
<path d="M197.34 170.33C196.03 168.93 194.17 168.22 191.83 168.22C190.06 168.22 188.27 169.02 186.4 170.35C186.61 169.75 187.01 168.64 187.01 168.64H177.02L169.32 191.58C168.24 192.72 166.9 193.75 166.32 194.09C165.07 194.82 163.29 195.49 161.79 194.88C161.79 194.88 161.07 194.51 161.23 194.08C161.72 192.63 164.06 185.76 164.06 185.76C166.11 179.69 167.93 174.65 169.31 171.17L170.52 168.12H160.41L159.86 169.56C158.08 174.29 156.59 177.86 155.33 180.48C153.35 184.65 151.36 187.87 149.43 190.06C147.65 192.04 146.07 193.63 144.05 193.62C143.89 193.62 143.71 193.62 143.56 193.59C143.28 193.52 143.06 193.18 143.17 192.95C144.69 188.94 152.85 168.13 152.85 168.13H142.52C142.52 168.13 132.65 193.19 132.48 195.41C132.35 197.24 133.3 198.78 134.56 199.99C135.82 201.18 137.36 201.79 139.14 201.79C142.42 201.79 146.15 199.86 150.45 196.08C150.45 196.09 150.41 196.17 150.41 196.17L150.21 197.19C150.21 198.15 150.75 199.53 153.29 200.68C154.93 201.41 156.48 201.78 157.89 201.78C160.32 201.78 162.35 201.43 164.92 199.68C166.03 198.93 166.79 198.16 167.38 197.4L165.91 201.78H175.87L176.34 200.19C177.56 196.09 178.76 192.54 179.93 189.64C181.57 185.47 183.22 182.1 184.85 179.63C186.72 176.81 187.75 176.4 188.65 176.04C188.65 176.04 189.33 175.71 190.62 175.58C191.71 175.47 192.8 176.31 193.11 176.96C193.46 177.67 193.02 178.88 192.62 179.87C192.26 180.77 192 181.42 192.28 181.84C192.37 181.97 192.55 182.13 192.89 182.13C194.86 182.13 196.52 181.39 197.68 180C198.75 178.7 199.29 177.14 199.29 175.37C199.29 173.38 198.64 171.68 197.35 170.33" fill="white"/>
<path d="M53.15 146.61H53.1599C53.0599 146.56 43.3799 140.74 34.0299 140.23C22.9399 139.62 3.31 144.55 0 166.88L0.73999 167.03C3.33999 157.09 12.7299 147.68 23.0399 144.65C29.2799 142.83 36.27 143.53 42.71 146.64C50.44 150.53 56.7 159.69 57.6 168.41C58.12 173.48 57.1299 180.81 49.4299 186.95C42.9999 192.16 31.91 194.17 27.85 190.85C25.96 189.3 26.48 186.86 27.63 183.33L40.3099 151.05L40.1899 150.88C39.9499 150.54 34.16 142.55 28.63 145.11C26.85 145.94 15.0199 185.11 11.4399 197.09L11.34 197.43L11.6699 197.55C28.6299 203.82 43.38 204.05 55.52 198.23C64.6 194.45 71.07 185.05 71.58 174.85C72.15 163.53 65.42 153.23 53.13 146.59" fill="white"/>
<path d="M24.9902 73.8701C24.4302 72.7001 21.9702 68.3701 17.8402 67.2001C13.6202 66.0101 9.76016 67.7101 7.91016 69.0601L24.9902 73.8701Z" fill="white"/>
<path d="M15.6802 75.7801C19.5302 76.8901 23.6102 74.7901 24.9902 73.8701L7.91016 69.0601C9.14016 71.1301 10.8802 74.4001 15.6802 75.7801Z" fill="white"/>
<path d="M28.2698 64.9597C28.4598 63.4097 28.5697 58.6197 25.7797 55.4497C22.8197 52.0797 18.7998 51.4197 16.5098 51.6097L28.2698 64.9597Z" fill="white"/>
<path d="M19.4501 61.5501C22.1701 64.4901 26.6002 65.0201 28.2702 64.9501L16.5101 51.6001C16.4901 54.0001 16.0601 57.8701 19.4501 61.5401" fill="white"/>
<path d="M40.98 108.89C39.21 108.24 32.6099 107.04 28.4099 109.99C24.0899 113.02 22.78 118.1 22.5 120.8L40.98 108.89Z" fill="white"/>
<path d="M35.0499 119.59C39.4299 116.74 40.89 111.07 40.98 108.89L22.5 120.8C25.78 121.75 30.8199 122.33 35.0499 119.58" fill="white"/>
<path d="M39.9097 102.84C38.8197 101.13 33.0298 95.0202 26.6298 94.4602C20.4498 93.9302 14.9298 96.5803 12.5098 98.6003L39.9097 102.84Z" fill="white"/>
<path d="M25.0997 106.83C31.3997 107.97 37.7397 104.61 39.9097 102.85L12.5098 98.6104C15.2498 102.02 19.1197 105.76 25.1097 106.84" fill="white"/>
<path d="M87.0703 49.75C86.3503 48.06 82.8403 42.01 77.2303 39.88C71.0703 37.54 65.2604 39.22 62.6104 40.75L87.0703 49.75Z" fill="white"/>
<path d="M72.6101 50.64C78.1601 52.9 84.6401 50.96 87.0801 49.75L62.6201 40.75C64.5301 44.36 67.3601 48.5 72.6201 50.65" fill="white"/>
<path d="M55.0499 117.62C55.1799 115.65 55.02 111.3 52.2 108.05C49.16 104.55 45.0899 103.86 42.9199 103.73L55.0599 117.62" fill="white"/>
<path d="M45.9797 113.53C48.7997 116.79 53.2596 117.78 55.0496 117.61L42.9096 103.72C42.7096 106.11 43.2497 110.38 45.9797 113.53Z" fill="white"/>
<path d="M56.4698 100.36C55.8698 98.8102 53.7898 94.6002 49.8398 92.9102C45.5798 91.0802 41.6399 92.1102 39.6299 92.9102L56.4799 100.35" fill="white"/>
<path d="M46.0999 100.28C50.3699 102.4 54.9299 101.28 56.4799 100.36L39.6299 92.9199C40.5599 95.1299 42.3799 98.4399 46.0999 100.29" fill="white"/>
<path d="M39.2102 85.37C38.1902 84.08 34.8302 80.44 30.2502 80.1C25.3302 79.74 21.8702 82.64 20.2402 84.25L39.2202 85.37" fill="white"/>
<path d="M29.7904 89.56C34.1404 89.8 38.0504 86.57 39.2104 85.37L20.2305 84.25C21.8705 86.01 24.8004 89.29 29.7804 89.56" fill="white"/>
<path d="M98.74 30.3401C99.72 28.6801 102.26 23.5401 100.68 18.4101C98.9799 12.9101 94.3699 10.4101 91.9199 9.33008L98.74 30.3501" fill="white"/>
<path d="M90.3202 21.9598C91.9102 26.7898 96.9403 29.5898 98.7503 30.3398L91.9302 9.31982C90.7002 11.8498 88.5002 16.4198 90.3202 21.9598Z" fill="white"/>
<path d="M118.19 20.52C119.3 19.06 122.22 14.48 121.27 9.51001C120.26 4.18001 116.24 1.26 114.03 0L118.2 20.52" fill="white"/>
<path d="M111.09 11.61C112.26 16.82 116.93 19.63 118.19 20.52L114.02 0C112.54 2.05 109.9 6.29999 111.08 11.61" fill="white"/>
<path d="M120.09 45.0599C121.51 43.9399 125.27 39.6099 125.03 34.7699C124.81 30.2799 120.95 26.3599 118.84 24.8999L120.09 45.0599Z" fill="white"/>
<path d="M114.15 35.5399C114.61 40.6299 118.9 44.0699 120.09 45.0599L118.84 24.8999C117.01 26.6699 113.68 30.3499 114.16 35.5399" fill="white"/>
<path d="M127.05 57.8099C128.65 57.0899 133.08 54.4799 134.17 49.2599C135.06 44.9499 132.45 40.2999 130.84 38.3999L127.06 57.8199" fill="white"/>
<path d="M123.88 47.3397C123.09 51.9497 126.2 56.5797 127.05 57.8097L130.83 38.3896C128.69 39.6196 124.74 42.3097 123.87 47.3297" fill="white"/>
<path d="M145.83 82.4301C147.62 82.6301 152.93 82.6001 156.57 78.5501C159.57 75.2101 159.65 69.6902 159.19 67.1602L145.83 82.4301Z" fill="white"/>
<path d="M148.35 71.4599C145.34 75.1699 145.69 80.8899 145.83 82.4299L159.19 67.1599C157.03 66.9699 151.88 67.1199 148.35 71.4599Z" fill="white"/>
<path d="M183.27 71.3501C185.11 71.4801 190.419 71.1101 194.359 67.1501C197.629 63.8501 198.009 58.1401 197.729 55.6001L183.279 71.3401" fill="white"/>
<path d="M186.35 60.0701C182.93 63.9201 183.16 69.7501 183.27 71.3501L197.72 55.6101C195.48 55.3601 189.76 56.2401 186.35 60.0801" fill="white"/>
<path d="M151.29 51.8799C152.96 51.4899 157.99 49.6199 160.09 45.3499C162.09 41.2899 161.09 36.3699 160.05 34.1499L151.29 51.8899" fill="white"/>
<path d="M151.119 41.0797C149.039 45.4397 150.789 50.4897 151.289 51.8797L160.049 34.1396C157.699 34.7596 153.279 36.5397 151.109 41.0797" fill="white"/>
<path d="M147.01 32.9302C148.72 32.7202 154.01 31.3902 156.63 27.3102C159.11 23.4402 158.58 18.4302 157.98 15.9902L147.01 32.9302Z" fill="white"/>
<path d="M148.15 21.96C145.54 26.13 146.68 31.48 147.01 32.94L157.98 16C155.55 16.38 150.87 17.62 148.15 21.96Z" fill="white"/>
<path d="M165.6 41.8698C167.03 42.1398 171.62 42.4498 174.73 39.8398C177.68 37.3698 178.47 33.2098 178.59 31.0898L165.6 41.8598" fill="white"/>
<path d="M169.2 33.3401C166.07 36.0101 165.69 40.6101 165.6 41.8701L178.59 31.1001C176.55 30.7701 172.47 30.5501 169.21 33.3401" fill="white"/>
<path d="M182.77 53.5103C184.27 53.1803 188.89 51.9803 191.01 47.7303C193.08 43.5803 192.059 39.6503 191.349 37.5303L182.77 53.5103Z" fill="white"/>
<path d="M182.96 43.6C180.95 47.52 182.24 51.91 182.77 53.52L191.35 37.54C189.24 38.07 185.06 39.51 182.96 43.6Z" fill="white"/>
<path d="M170.3 75.5502C171.84 75.1802 176.58 73.8702 178.69 69.4702C180.75 65.1702 179.63 61.1402 178.87 58.9702L170.3 75.5502Z" fill="white"/>
<path d="M170.329 65.3397C168.329 69.4097 169.719 73.8997 170.299 75.5497L178.869 58.9697C176.699 59.5497 172.419 61.1097 170.339 65.3497" fill="white"/>
<path d="M197.77 67.4901C199.1 67.9401 203.259 69.1801 206.929 66.8801C210.519 64.6301 211.589 61.0901 212.059 59.1001L197.77 67.4901Z" fill="white"/>
<path d="M202.65 59.8701C199.22 61.9701 198.13 65.9901 197.77 67.4901L212.059 59.1001C210.159 58.5201 206.22 57.6701 202.65 59.8701Z" fill="white"/>
<path d="M191.24 81.9597C192.44 82.7697 196.24 84.9997 200.57 83.8197C204.89 82.6497 206.54 79.3297 207.8 77.4297L191.23 81.9597" fill="white"/>
<path d="M198.18 75.6499C194.17 76.8199 192 80.5499 191.24 81.9599L207.81 77.4299C206.07 76.3299 202.35 74.4199 198.18 75.6499Z" fill="white"/>
<path d="M205.71 85.16C206.87 86.46 210.65 90.13 216 90.07C221.47 90.01 224.47 86.93 226.24 84.73L205.71 85.16Z" fill="white"/>
<path d="M215.57 79.78C210.61 79.99 206.99 83.73 205.71 85.17L226.24 84.74C224.54 82.95 220.74 79.57 215.57 79.79" fill="white"/>
<path d="M190.28 84.5698C190.18 86.0198 190.23 90.5698 193.42 93.7398C196.55 96.8398 200.49 96.6998 202.61 96.7198L190.29 84.5698" fill="white"/>
<path d="M199.37 87.4801C196.37 84.5801 191.88 84.5301 190.28 84.5701L202.6 96.7201C202.69 94.6601 202.5 90.5001 199.37 87.4801Z" fill="white"/>
<path d="M159.13 99.92C160.53 99.48 164.78 97.78 166.45 93.58C168.08 89.48 166.75 85.94 165.91 83.98L159.13 99.92Z" fill="white"/>
<path d="M158.47 90.29C156.87 94.17 158.49 98.43 159.13 99.92L165.91 83.98C163.94 84.66 160.14 86.24 158.48 90.29" fill="white"/>
<path d="M181.079 106.2C181.639 104.74 182.17 99.91 179.89 96.61C177.51 93.16 173.6 92.15 171.52 91.79L181.079 106.2Z" fill="white"/>
<path d="M172.97 101.75C175.23 104.89 179.51 105.92 181.08 106.2L171.52 91.79C170.95 93.68 170.4 98.19 172.97 101.75Z" fill="white"/>
<path d="M163.35 33.2701C165.02 32.9301 169.92 31.2701 172.25 27.0701C174.45 23.1001 173.5 18.1801 172.73 15.8301L163.35 33.2801" fill="white"/>
<path d="M163.61 22.4098C161.34 26.6998 162.83 31.7398 163.36 33.2698L172.74 15.8198C170.38 16.3598 165.98 17.9398 163.62 22.4098" fill="white"/>
<path d="M81.7794 18.8101C82.6294 17.1601 83.9695 13.1501 82.5995 9.50006C81.0495 5.37006 77.2195 3.51006 75.1895 2.81006L81.7794 18.8" fill="white"/>
<path d="M74.6996 12.8403C76.2496 16.3003 80.2195 18.2103 81.7795 18.8103L75.1896 2.82031C74.2896 4.96031 72.7696 8.54031 74.6896 12.8503" fill="white"/>
<path d="M109.309 35.7899C110.649 34.3799 113.119 30.78 112.789 26.7299C112.419 22.15 109.049 19.1999 107.189 17.9199L109.309 35.7899Z" fill="white"/>
<path d="M103.789 27.8299C104.359 31.7299 107.899 34.7499 109.309 35.7899L107.189 17.9199C105.649 19.8099 103.079 22.9699 103.789 27.8299Z" fill="white"/>
<path d="M128.5 30.6898C130.05 29.6898 133.13 26.8798 133.75 23.0598C134.46 18.7298 132.08 15.1798 130.68 13.5698L128.5 30.6898Z" fill="white"/>
<path d="M125.3 22.0103C124.92 25.7503 127.45 29.4003 128.5 30.6903L130.68 13.5703C128.84 14.9703 125.78 17.3503 125.3 22.0203" fill="white"/>
<path d="M135.53 38.6199C136.93 38.0499 139.88 36.2099 141.01 33.2399C142.36 29.6799 140.85 26.4299 139.97 24.9199L135.53 38.6299" fill="white"/>
<path d="M134.26 31.1499C133.43 34.1199 134.89 37.4199 135.53 38.6099L139.97 24.8999C138.27 25.7399 135.35 27.2399 134.26 31.1399" fill="white"/>
<path d="M139.97 57.4397C141.52 56.8197 144.83 54.8997 146.07 51.6397C147.55 47.7497 145.95 44.1397 144.96 42.4697L139.97 57.4297" fill="white"/>
<path d="M138.56 49.33C137.65 52.59 139.25 56.13 139.97 57.44L144.96 42.48C143.08 43.4 139.75 45.05 138.56 49.33Z" fill="white"/>
<path d="M83.4899 38.3698C84.0999 33.9898 83.0998 29.9298 80.6698 27.0198C77.6098 23.3498 72.2299 22.2398 69.8799 22.4198L83.4999 38.3698" fill="white"/>
<path d="M72.6797 33.6597C75.2197 36.4697 78.2798 38.0597 83.4798 38.3797L69.8598 22.4297C69.5798 24.7097 69.5097 30.1597 72.6797 33.6597Z" fill="white"/>
<path d="M96.8799 72.6401C98.6899 68.8101 99.2598 64.5602 97.8198 61.2302C95.6698 56.2502 91.0398 54.4101 88.8398 53.8901L96.8799 72.6401Z" fill="white"/>
<path d="M88.1503 65.0097C89.6603 68.2997 92.2303 70.8496 96.8903 72.6396L88.8502 53.8896C87.9402 55.8896 86.2703 60.8997 88.1503 65.0097Z" fill="white"/>
<path d="M140 21.1898C143.49 19.7798 146.36 17.5398 147.56 14.3998C149.06 10.4998 147.36 5.59984 146.18 3.83984L140 21.1898Z" fill="white"/>
<path d="M138.54 10.7098C137.33 13.8698 137.94 17.0099 140.01 21.1898L146.19 3.83984C144.04 4.49984 140.04 6.78984 138.55 10.7098" fill="white"/>
<path d="M109.57 60.7003C111.85 56.9903 113.31 52.6104 112.41 49.1104C110.9 43.2604 105.93 40.7604 103.81 39.8604L109.58 60.7003" fill="white"/>
<path d="M101.17 52.1799C102.26 55.8699 105.37 58.8199 109.57 60.6999L103.8 39.8599C101.96 42.5099 99.7999 47.5799 101.17 52.1799Z" fill="white"/>
<path d="M152.98 62.4404C157.55 64.2204 162.9 64.4204 166.74 62.6504C172.9 59.8104 174.86 53.5504 175.75 51.1104L152.98 62.4404Z" fill="white"/>
<path d="M161.17 51.3099C157.18 53.3999 154.47 57.6099 152.98 62.4399L175.75 51.1099C172.4 49.7899 166.5 48.5199 161.17 51.3099Z" fill="white"/>
<path d="M169.06 89.2103C173.66 90.4703 179.02 90.1703 182.59 88.1703C188.33 84.9603 189.76 79.0403 190.41 76.5703L169.06 89.2203" fill="white"/>
<path d="M176.03 78.0498C172.33 80.3598 170.08 84.3398 169.06 89.2098L190.41 76.5598C186.99 75.6398 180.82 75.0698 176.03 78.0498Z" fill="white"/>
<path d="M200.36 114.33C201.62 109.34 200.91 104.46 198.77 101.29C195.42 96.3 189.63 94.97 187.2 94.52L200.35 114.33" fill="white"/>
<path d="M189.21 108.31C191.56 111.55 195.65 113.4 200.35 114.33L187.2 94.52C186.17 97.96 185.88 103.7 189.21 108.31Z" fill="white"/>
<path d="M94.2998 47.9599C96.2798 44.3799 96.8898 40.1699 95.6798 36.9199C93.9498 32.2699 89.7399 29.9499 87.6299 29.1899L94.2998 47.9699" fill="white"/>
<path d="M86.2297 40.0099C87.5197 43.5399 89.7996 45.8999 94.3096 47.9699L87.6397 29.1899C86.6097 31.1199 84.6897 35.7899 86.2397 40.0099" fill="white"/>
<path d="M44.6698 60.1598C44.8098 58.6198 44.9599 53.7898 42.1199 50.8598C39.0999 47.7398 35.1199 47.3398 32.8799 47.6798L44.6798 60.1598" fill="white"/>
<path d="M36.0996 57.2697C38.8696 59.9797 43.0295 60.3397 44.6695 60.1597L32.8696 47.6797C32.7196 49.6297 32.6396 53.8897 36.0896 57.2697" fill="white"/>
<path d="M64.12 50.4901C63.6 48.9701 62.3599 44.6701 57.7899 42.2801C54.0199 40.3101 49.0199 41.3301 46.9199 42.4201L64.12 50.4901Z" fill="white"/>
<path d="M54.0198 50.9899C57.7498 52.6199 62.5698 51.2099 64.1298 50.4899L46.9297 42.4199C47.6297 44.3399 49.3498 48.9399 54.0198 50.9799" fill="white"/>
<path d="M67.2399 33.9802C67.1299 32.0902 66.6798 27.0802 62.0698 22.6602C58.6198 19.3402 53.8598 19.4102 51.5498 19.8802L67.2399 33.9902" fill="white"/>
<path d="M56.1698 30.3801C59.2998 33.1701 63.5499 34.2401 67.2399 33.9801L51.5498 19.8701C51.6998 21.9001 52.1798 26.8301 56.1698 30.3801Z" fill="white"/>
<path d="M67.7705 62.0198C67.0105 60.5998 64.5005 56.0598 60.1505 54.9098C55.5305 53.6798 51.3705 55.4498 49.4805 56.8598L67.7605 62.0198" fill="white"/>
<path d="M57.9802 64.1404C62.1302 65.1404 66.3503 62.9904 67.7703 62.0204L49.4902 56.8604C50.4902 58.6304 52.8002 62.8904 57.9902 64.1404" fill="white"/>
<path d="M85.1 69.2499C84.88 67.7999 83.43 63.0799 80.37 61.1199C77.01 58.9699 72.7999 59.7399 70.9199 60.5199L85.1 69.2499Z" fill="white"/>
<path d="M76.25 69.02C79.48 70.82 83.67 69.88 85.1 69.25L70.9199 60.52C71.3799 62.22 72.35 66.84 76.25 69.02Z" fill="white"/>
<path d="M48.7998 85.04C49.4998 82.66 49.8199 76.24 47.3599 71.89C43.5199 65.11 37.0498 63.37 34.7998 62.98L48.7998 85.04Z" fill="white"/>
<path d="M36.8805 77.0997C40.0405 82.3697 46.7004 84.8197 48.7904 85.0297L34.7904 62.9697C34.1604 65.7097 33.6205 71.6597 36.8805 77.0997Z" fill="white"/>
<path d="M77.4402 82.37C77.1202 79.89 74.8602 73.62 70.8202 70.55C64.5302 65.76 57.7302 66.7 55.4902 67.22L77.4402 82.37Z" fill="white"/>
<path d="M62.9402 79.6897C68.1402 83.4497 75.5802 82.9797 77.4402 82.3697L55.4902 67.2197C55.8402 69.9297 57.9302 76.0597 62.9502 79.6897" fill="white"/>
<path d="M126.39 100.58C124.62 104.81 124.93 108.48 127.12 108.66C129.31 108.84 132.44 105.48 134.07 101.27C135.65 97.2003 135.25 93.8304 133.19 93.6304C131.13 93.4304 128.11 96.4903 126.38 100.58" fill="white"/>
<path d="M116.15 69.9901C114.1 73.3701 113.81 76.5201 115.55 76.9401C117.29 77.3701 120.31 74.8901 122.25 71.5101C124.13 68.2401 124.28 65.3201 122.65 64.9001C121.02 64.4901 118.13 66.7201 116.14 69.9901" fill="white"/>
<path d="M96.2895 101.59C98.5795 100.74 97.6695 97.1197 94.3495 93.5797C91.1195 90.1597 86.8395 88.1197 84.6995 88.9397C82.5595 89.7497 83.2495 93.1297 86.3295 96.5797C89.5095 100.14 94.0095 102.43 96.2995 101.59" fill="white"/>
<path d="M103.34 96.6001C95.3302 85.3601 93.5402 81.4901 83.0502 72.5901C85.4502 77.0201 123.76 127.92 88.0502 101.31C88.0502 101.31 67.5102 87.0801 40.6602 88.5701C40.6602 88.5701 92.9603 94.1101 102.15 129.34C102.23 129.66 102.36 131.48 102.32 132.06C101.96 136.8 100.33 140.77 98.9202 143.39C97.7702 145.54 95.6002 148.23 94.9402 148.93C91.6402 152.4 85.8202 153.73 83.6002 154.77C86.1302 156.58 94.7002 155.05 98.5502 154.77L112.82 155.37C113.21 155.35 114.63 155.44 115.34 155.44L117.6 149.01C117.6 149.01 123.96 147.71 126.41 147.28C128.85 146.85 131.59 146.56 131.59 146.56L127.51 155.67C132.01 156.27 145.59 157.78 148.08 156.23C145.25 155.07 137.04 154.19 133.69 149.41C133.22 148.93 129.86 137.34 129.97 133.24C129.97 133.1 129.99 132.72 130 132.66C136.32 90.4701 179.44 75.2101 179.44 75.2101C151.53 81.5401 136.48 103.45 136.48 103.45C108.17 138.84 127.81 86.7801 133.65 80.6401C123.11 88.8001 119.24 100.86 119.24 100.86C122.46 66.6301 151.36 63.3601 151.36 63.3601C136.47 62.9501 125.01 75.3901 125.01 75.3901C100.56 101.79 109.69 63.9701 120.08 58.5801C119.15 59.0701 99.7902 67.2801 103.35 96.5901" fill="white"/>
</svg>
