<svg width="57" height="20" viewBox="0 0 57 20" fill="none" xmlns="http://www.w3.org/2000/svg">
<path d="M45.1028 0C45.5214 0.652412 45.8726 1.34614 46.2657 2.0116C47.0801 3.45126 47.8956 4.89001 48.7122 6.32785C46.3146 6.33148 43.9174 6.33148 41.5205 6.32785C42.7084 4.21784 43.9105 2.11273 45.1028 0Z" fill="#1E1E1E"/>
<path d="M0 19.7216C0.763862 15.1547 1.5125 10.5878 2.28724 6.02692C3.75516 6.03453 5.22797 6.02692 6.69861 6.02964C7.94469 5.96082 9.19449 6.04793 10.419 6.28897C11.4369 6.50446 12.3472 7.06985 12.9916 7.88684C13.63 8.84343 13.9381 9.98246 13.8691 11.1304C13.8273 12.6805 13.4627 14.2048 12.7986 15.606C12.3274 16.6269 11.6267 17.5252 10.7512 18.2308C9.69436 19.0288 8.43703 19.5181 7.11887 19.6444C6.34361 19.716 5.56475 19.7408 4.78651 19.7189H0M5.94127 9.22591C5.53496 11.6587 5.12956 14.0916 4.72507 16.5248C5.49082 16.5809 6.26067 16.521 7.0085 16.347C7.41236 16.219 7.7868 16.0121 8.11008 15.7382C8.43337 15.4644 8.69907 15.1291 8.89179 14.7518C9.39608 13.7148 9.65114 12.5743 9.63662 11.4213C9.62412 10.7917 9.51864 10.0311 8.9255 9.67607C8.03496 9.12424 6.94109 9.24331 5.94127 9.22591Z" fill="#1E1E1E"/>
<path d="M15.9103 6.02979C17.3072 6.02979 18.7046 6.02979 20.1025 6.02979C19.519 9.52853 18.9362 13.0271 18.3541 16.5255C20.2738 16.5255 22.1935 16.5255 24.1127 16.5255C23.9344 17.5911 23.7609 18.6583 23.5772 19.7239C20.2611 19.7203 16.9447 19.7203 13.6279 19.7239C14.3869 15.1581 15.1477 10.5934 15.9103 6.02979Z" fill="#1E1E1E"/>
<path d="M27.0136 6.02979C30.3314 6.02979 33.6493 6.02979 36.9671 6.02979C36.7921 7.09376 36.611 8.15665 36.4371 9.22117C34.5168 9.23313 32.5965 9.22117 30.6741 9.22769C30.5375 10.057 30.3994 10.8861 30.2598 11.715C31.7881 11.715 33.3158 11.7215 34.8441 11.7112C34.681 12.7784 34.4885 13.8419 34.3173 14.9091C32.7879 14.9124 31.2575 14.9091 29.7281 14.9091C29.4617 16.5122 29.195 18.1155 28.9278 19.719C27.5295 19.719 26.1314 19.719 24.7334 19.719C25.4938 15.1565 26.2539 10.5934 27.0136 6.02979Z" fill="#1E1E1E"/>
<path d="M41.7988 6.81201C44.0098 6.81201 46.2207 6.81201 48.4317 6.81201C47.3284 8.76345 46.2229 10.7138 45.1152 12.6631C44.0061 10.7142 42.9007 8.76381 41.7988 6.81201Z" fill="#1E1E1E"/>
<path d="M37.7969 12.8954C38.9509 10.869 40.1022 8.84051 41.2509 6.81006C42.4042 8.83979 43.5562 10.8695 44.707 12.8992C42.4034 12.8976 40.1004 12.9025 37.7969 12.8954Z" fill="#1E1E1E"/>
<path d="M45.5117 12.8983C46.665 10.8711 47.8164 8.84135 48.9657 6.80908C50.1186 8.83881 51.2701 10.8685 52.4202 12.8983C50.1172 12.8983 47.8142 12.9032 45.5117 12.8983Z" fill="#1E1E1E"/>
<path d="M37.5273 13.376C38.7353 15.4854 39.9292 17.6036 41.127 19.7191C38.7286 19.7191 36.3308 19.7191 33.9336 19.7191C35.1297 17.6031 36.3276 15.4887 37.5273 13.376Z" fill="#1E1E1E"/>
<path d="M38.0781 13.3804C40.2892 13.3842 42.5009 13.3804 44.711 13.3804C43.6236 15.3006 42.5325 17.216 41.4489 19.1379C41.4157 19.2646 41.3266 19.145 41.3086 19.0884C40.2365 17.1834 39.1535 15.2843 38.0781 13.3804Z" fill="#1E1E1E"/>
<path d="M45.5166 13.3823C47.7275 13.3823 49.9385 13.3823 52.1494 13.3823C51.0439 15.333 49.9385 17.2836 48.833 19.2339C47.7279 17.2828 46.6224 15.3323 45.5166 13.3823Z" fill="#1E1E1E"/>
<path d="M52.6857 13.3853C53.2788 14.3552 53.8116 15.3632 54.383 16.3467C55.0195 17.4703 55.6571 18.5939 56.2957 19.7175C53.8966 19.7175 51.4979 19.7175 49.0996 19.7175C50.293 17.6058 51.4945 15.4991 52.6857 13.3853Z" fill="#1E1E1E"/>
<path d="M45.1185 13.6265C46.2874 15.6468 47.4205 17.6888 48.5703 19.72C46.2713 19.72 43.9725 19.72 41.6738 19.72C42.8166 17.6872 43.9768 15.6631 45.1185 13.6265Z" fill="#1E1E1E"/>
</svg>
