<svg width="283" height="85" viewBox="0 0 283 85" fill="none" xmlns="http://www.w3.org/2000/svg">
<path d="M53.5796 10.1887C50.1496 10.1887 45.2095 11.2787 36.2695 14.2487V70.6487C44.1295 73.2087 50.1496 74.7087 53.5796 74.7087C61.4796 74.7087 65.9296 69.5087 65.9296 61.1687V23.7188C65.9296 15.3787 61.4796 10.1787 53.5796 10.1787M56.1495 59.7287C56.1495 62.9887 54.3295 64.0787 52.1495 64.0787C50.4495 64.0787 47.8396 63.4187 45.6996 62.7887V22.0988C47.8296 21.4888 50.4495 20.8287 52.1495 20.8287C54.3295 20.8287 56.1495 21.9187 56.1495 25.1787V59.7287Z" fill="white"/>
<path d="M166.46 0.038379C156.46 -0.481621 150.51 4.26842 150.51 15.1484V69.1884C150.51 80.6684 155.9 85.3984 166.46 84.8984C176.8 84.4184 182.19 80.1884 182.19 67.9784V16.3884C182.19 4.74842 177.31 0.59843 166.46 0.0284303M171.29 68.2284C171.29 71.4884 170.28 73.1884 166.46 73.3084C162.53 73.4284 161.46 71.6184 161.46 68.2284V16.7184C161.46 13.3384 162.53 11.4584 166.46 11.5784C170.28 11.6984 171.29 13.4484 171.29 16.7184V68.2284Z" fill="white"/>
<path d="M263.64 21.1284V63.6984C275.91 57.4284 282.95 50.1384 282.95 42.3284C282.95 34.5184 275.91 27.3484 263.64 21.1284Z" fill="white"/>
<path d="M0 42.3287C0 50.1287 7.02993 57.4287 19.2999 63.6887V21.1387C7.03993 27.3487 0 34.5987 0 42.3287Z" fill="white"/>
<path d="M93.4396 66.3385C93.4396 69.5985 92.3996 71.6685 88.6096 71.1785C84.8896 70.6985 83.8895 68.9985 83.8895 65.1285V3.74847C81.4195 4.03847 75.9196 4.85851 73.5596 5.21851V67.2985C73.5596 77.2085 78.0296 81.0685 88.6096 82.3685C98.2896 83.5685 104.22 78.2985 104.22 67.2985V1.7085C102.2 1.8285 95.5696 2.43847 93.4396 2.67847V66.3285V66.3385Z" fill="white"/>
<path d="M212.12 46.0581L200.159 4.05811C196.899 3.59811 192.969 3.12813 189.939 2.82812V82.1081C192.069 81.8981 197.509 81.2281 200.319 80.8381L199.469 34.1181L212.129 79.0081C214.829 78.5481 218.759 77.8081 221.339 77.2781V7.6181C218.639 7.0481 213.739 6.15813 211.389 5.76813L212.129 46.0581H212.12Z" fill="white"/>
<path d="M127.66 0.498535C125.78 0.498535 118.94 0.74856 112.65 1.14856V83.7686C114.78 83.8886 120.4 84.2085 123.43 84.2885V56.2285H127.65C138.95 56.1885 143.65 50.7285 143.65 40.2385V15.8986C143.65 5.62856 138.37 0.498535 127.65 0.498535M132.76 39.3785C132.76 42.9285 131.6 44.7385 127.22 44.7485H123.44V12.1586C125.13 12.0686 126.02 12.0385 127.04 12.0385C131.78 12.0385 132.77 13.9786 132.77 17.5986V39.3785H132.76Z" fill="white"/>
<path d="M226.67 19.7985C229.34 20.3085 231.97 20.8885 234.53 21.4885V74.1985C236.89 73.6085 241.27 72.3785 244.19 71.4385V23.9686C246.99 24.7486 249.64 25.5386 252.05 26.2786V16.1185C244.42 13.2485 236.23 10.9186 226.66 8.76855V19.7885L226.67 19.7985Z" fill="white"/>
</svg>
