<svg width="319" height="162" viewBox="0 0 319 162" fill="none" xmlns="http://www.w3.org/2000/svg">
<path fill-rule="evenodd" clip-rule="evenodd" d="M131.68 31.9V42.62H103.42V0H131.68V10.72H118.51V15.9901H127.69V26.71H118.51V31.89H131.68V31.9Z" fill="black"/>
<path fill-rule="evenodd" clip-rule="evenodd" d="M166.75 42.62H151.67V24.08L138.68 0H153.95L159.22 9.72003L164.4 0H179.67L166.77 24.08V42.62H166.75Z" fill="black"/>
<path fill-rule="evenodd" clip-rule="evenodd" d="M217 31.9V42.62H188.74V0H217V10.72H203.73V15.9901H213V26.71H203.73V31.89H217V31.9Z" fill="black"/>
<path fill-rule="evenodd" clip-rule="evenodd" d="M0.00994873 104.31L9.63995 102.49C10.27 101.95 77.78 68.8699 159.39 68.8699C241 68.8699 308.41 101.95 309.04 102.49L318.67 104.31C315.76 102.13 246.34 50.97 159.38 50.97C72.42 50.97 2.91 102.13 0 104.31" fill="black"/>
<path fill-rule="evenodd" clip-rule="evenodd" d="M142.85 116.22C142.85 107.14 150.21 99.7701 159.29 99.7701C168.38 99.7301 175.78 107.08 175.82 116.17C175.82 116.19 175.82 116.2 175.82 116.22C175.8 121.07 173.64 125.65 169.91 128.76L159.28 118.22L148.74 128.85C144.99 125.73 142.83 121.1 142.83 116.22M202.37 161.1L188.74 147.56C197.36 139.41 202.25 128.08 202.28 116.22C202.26 92.5101 183.03 73.3101 159.32 73.3301C159.32 73.3301 159.31 73.3301 159.3 73.3301C135.63 73.3101 116.43 92.4701 116.41 116.14V116.22C116.38 139.93 135.58 159.17 159.29 159.2C159.29 159.2 159.29 159.2 159.3 159.2C164.94 159.2 170.53 158.08 175.75 155.93L180.84 161.11H202.37V161.1Z" fill="black"/>
</svg>
