<svg width="194" height="194" viewBox="0 0 194 194" fill="none" xmlns="http://www.w3.org/2000/svg">
<path d="M75.02 0L31.11 43.91V0H9.14999V36.59L0 45.73L14.64 60.37L0 75.01L16.47 91.48L32.94 75.01L18.3 60.37L31.11 47.57L75.02 91.48L91.48 75.01L62.21 45.73L91.48 16.46L75.02 0Z" fill="white"/>
<path d="M171.98 0V53.05L118.93 0L102.46 16.46L117.1 31.1L102.46 45.73L117.1 60.37L102.46 75.01L118.93 91.48L135.39 75.01L120.76 60.37L133.56 47.57L177.47 91.48L193.94 75.01V0H171.98Z" fill="white"/>
<path d="M45.74 131.73L16.47 102.45L0 118.92L14.64 133.56L0 148.19L14.64 162.83L0 177.46L16.47 193.93L32.94 177.46L18.3 162.83L31.11 150.02L45.74 164.66L69.53 140.87V193.93H91.48V118.92L75.02 102.45L45.74 131.73Z" fill="white"/>
<path d="M102.46 148.19L117.1 162.83L102.46 177.46L118.93 193.93L135.39 177.46L120.76 162.83L148.2 135.39L171.98 159.17V193.93H193.94V148.19L148.2 102.45L102.46 148.19Z" fill="white"/>
</svg>
