<svg width="474" height="111" viewBox="0 0 474 111" fill="none" xmlns="http://www.w3.org/2000/svg">
<path d="M60.8223 0.302932C57.2123 -0.077068 53.9023 -0.117068 50.2423 0.282932C24.4023 3.10293 4.04232 22.6729 0.492321 48.5829C-3.95768 81.0429 22.3223 111.583 56.5423 110.993C84.2323 110.513 107.802 89.2829 110.762 61.3629C114.012 30.6729 91.4423 3.54293 60.8223 0.302932ZM55.8423 103.913L79.4623 62.6429L93.0823 62.5529L101.112 48.6329L63.5723 48.5729L55.6623 62.3729L71.2123 62.7929L47.9123 103.383C23.6623 99.3929 5.90232 77.8829 7.21232 53.0729C8.23232 33.8329 20.9323 15.9629 40.1223 10.0229L10.1223 62.3829L47.5123 62.5629L55.6123 48.6629L26.2323 48.5329L49.8423 7.61293C75.8723 4.29293 100.222 23.1129 103.662 49.3629C107.362 77.6129 85.2623 103.923 55.8423 103.913Z" fill="white"/>
<path d="M211.312 53.6929C210.792 57.9829 209.732 61.2629 207.162 64.5429L200.632 55.2229C208.752 52.2129 214.952 46.6429 211.992 38.4929C209.742 32.2729 199.872 29.7229 192.552 32.9429C188.492 34.7329 186.012 38.1829 185.822 42.5029C185.672 45.9229 186.492 48.6729 188.842 51.7829C184.842 53.5829 181.312 55.1429 178.822 58.5429C175.852 62.6029 175.352 68.3829 177.812 72.8629C182.452 81.3129 197.102 81.2729 205.012 76.4729L206.962 78.8129L216.482 78.5329L211.612 70.8829C216.212 66.0629 218.502 60.3829 219.402 53.7529L211.312 53.6929ZM195.012 40.8729C195.752 39.4829 197.932 38.1629 199.952 38.0229C202.872 37.8129 205.312 40.0429 204.772 42.8529C203.802 47.9129 197.562 49.3729 196.892 49.0329C195.922 48.5429 193.212 44.2329 195.012 40.8729ZM188.722 71.7729C184.872 70.1129 184.202 64.7429 186.872 61.5829C188.392 59.7829 190.632 58.7529 192.992 57.9029L201.092 70.3729C197.222 72.8529 192.712 73.5029 188.722 71.7729Z" fill="white"/>
<path d="M305.542 32.8829C298.582 32.0529 291.772 31.9229 284.542 32.1429L274.832 78.7129L284.282 78.7429L288.222 59.8329C291.292 59.3729 295.792 59.1329 296.592 63.0229L299.812 78.6729H309.682L305.482 60.6029C305.062 58.7929 304.032 57.4729 302.252 55.9429C309.492 54.2729 314.272 50.9829 314.032 42.9929C314.442 37.7929 310.782 33.5129 305.542 32.8829ZM304.302 46.0629C302.942 51.7429 295.452 52.6329 290.012 51.9129L292.492 39.9029C295.722 39.2829 299.632 39.1529 302.592 40.8829C304.362 41.9229 304.722 44.3029 304.302 46.0629Z" fill="white"/>
<path d="M463.532 44.5829L450.412 69.1029C449.682 67.9429 449.392 66.8829 449.232 65.6329L446.602 44.4929L437.412 44.5629L443.422 80.1829C440.982 85.0029 437.732 88.3329 431.672 85.9829L430.132 91.3029C430.012 91.7129 430.172 92.8929 430.582 92.9829L432.092 93.3229C438.542 94.7929 444.892 92.8529 448.542 86.6829L473.322 44.7129L463.532 44.5729V44.5829Z" fill="white"/>
<path d="M324.312 47.843C318.782 52.303 316.002 59.203 316.382 66.123C316.762 73.063 320.992 77.853 327.712 79.243C333.152 80.363 338.652 79.603 343.922 77.653L344.842 70.853C340.352 72.383 336.372 73.603 331.752 72.973C327.302 72.363 324.312 68.933 325.232 64.513L348.752 64.593C350.542 60.243 350.712 55.583 349.032 51.183C345.722 42.463 332.482 41.243 324.302 47.843H324.312ZM341.362 58.103L326.462 58.153C327.202 55.043 328.952 52.623 331.132 51.483C333.712 50.143 337.482 49.853 339.692 51.593C341.422 52.963 341.622 55.543 341.372 58.103H341.362Z" fill="white"/>
<path d="M376.792 44.103C373.212 43.443 370.082 43.393 366.482 44.213C364.822 44.593 361.962 44.763 360.762 45.973C359.462 47.763 359.412 50.653 359.422 52.793C364.522 50.563 373.512 48.823 376.602 52.693C377.522 53.853 377.652 56.713 376.412 57.573C369.032 57.623 355.252 57.573 353.182 66.553C352.312 70.343 352.572 74.763 355.852 77.273C361.712 81.773 369.252 80.143 373.972 74.393V78.763L381.202 78.713L385.432 55.703C386.522 49.763 382.252 45.113 376.812 44.103H376.792ZM364.602 72.943C363.462 72.693 361.992 71.723 361.652 70.903C361.282 70.013 361.282 68.103 361.842 67.143C364.362 62.773 371.172 62.883 375.982 63.193C374.652 68.843 370.932 74.343 364.602 72.943Z" fill="white"/>
<path d="M220.812 39.433L233.752 39.743L225.342 78.563C228.642 78.793 231.762 78.793 235.162 78.653L243.612 39.713L256.612 39.473C257.412 37.003 257.882 34.853 258.022 32.083L222.422 32.053C221.642 34.753 221.152 37.013 220.812 39.433Z" fill="white"/>
<path d="M163.532 32.2729C159.842 31.9729 157.252 31.9729 154.132 32.3329L144.322 78.7629L172.012 78.7429L173.432 71.6529L155.262 71.4829L163.522 32.2629L163.532 32.2729Z" fill="white"/>
<path d="M423.292 71.7329C422.712 71.1129 422.232 69.0929 422.432 68.1529L426.112 51.0929L434.022 50.9729L435.462 44.6529L427.612 44.3829L428.522 39.8329C428.882 38.0129 429.112 36.6329 429.132 34.4529L420.042 37.4129L418.282 44.4529L411.872 44.6429L410.572 50.7929L416.902 51.3029L414.362 63.1129C413.102 68.9729 411.732 77.1729 419.312 79.1429C422.202 79.8929 426.212 80.4329 428.782 78.2529L430.002 72.5929C428.782 71.7329 425.162 73.7329 423.282 71.7329H423.292Z" fill="white"/>
<path d="M389.912 78.6829L398.952 78.5829L409.472 28.9629L400.442 28.9729L389.912 78.6829Z" fill="white"/>
</svg>
