<svg width="402" height="133" viewBox="0 0 402 133" fill="none" xmlns="http://www.w3.org/2000/svg">
<path fill-rule="evenodd" clip-rule="evenodd" d="M32.8302 0.0910725C32.8302 0.241072 33.3102 1.35106 33.9002 2.55106C38.5102 11.9911 35.6702 27.6611 27.0502 40.2411C19.3602 51.4711 18.1602 53.5811 16.6102 58.6211C12.6502 71.4511 15.0102 76.9111 30.2102 90.1811C46.8102 104.671 55.5102 106.011 65.8102 95.6911C76.1702 85.3111 74.5102 75.7611 60.1402 63.0911C50.3702 54.4811 50.1202 54.3311 52.4602 58.5011C61.2902 74.2211 52.1802 89.8211 35.6102 87.3311L33.6202 87.0311L32.8202 85.2211C28.7002 75.9011 31.8702 66.3611 43.5302 53.0811C56.4502 38.3611 58.8802 27.1711 51.5202 16.1911C49.2702 12.8311 32.8302 -1.32892 32.8302 0.101082M329.09 1.74107C323.83 3.60107 323.32 5.56108 323.32 23.8811V38.7511H308.45C290.3 38.7511 289.05 39.0311 286.73 43.6511L285.67 45.7711V71.9611L286.78 74.1911C287.6 75.8511 288.4 76.7211 289.88 77.5911L291.87 78.7611H306.84L307.77 72.4111C308.77 65.5711 309.28 64.4311 311.33 64.4311C313.9 64.4311 314.28 65.7511 313.49 72.0211C312.53 79.7011 312.09 79.8311 328.23 67.6411C335.55 62.1111 341.92 57.5911 342.38 57.5911C343.93 57.5911 345.12 58.8011 345.12 60.3811V61.8411L336.48 68.3811C331.73 71.9811 327.54 75.1511 327.18 75.4311C326.66 75.8311 326.63 76.0511 327.04 76.4611C327.45 76.8811 328.64 76.1611 332.68 73.0711C338.98 68.2511 341.71 67.8511 341.71 71.7511C341.71 73.2911 341.47 73.5311 334.76 78.5611C329.74 82.3311 328.78 83.3211 329.64 83.8511C329.82 83.9611 332.26 82.3411 335.05 80.2511C340.85 75.9011 341.36 75.6711 342.83 76.6311C345.7 78.5111 344.89 79.8311 337.44 85.4711C331.59 89.9011 330.08 91.4211 331.55 91.3911C331.84 91.3911 333.99 89.9411 336.33 88.1811C341.87 84.0011 346.82 84.6111 343.95 89.1111C343.13 90.4011 327.18 102.171 325.35 102.841L323.32 103.581V106.151C323.33 115.271 325.95 116.631 343.43 116.631C356.69 116.631 358.03 116.451 360.36 114.411C363.37 111.771 363.31 112.161 363.45 94.7111L363.58 78.9911H378.42C401.6 78.9911 401.17 79.3611 401.17 58.8811C401.17 40.3411 400.02 38.5811 388.03 38.8711L382.99 38.9911L382.09 45.1511C381.39 49.9511 381.02 51.4411 380.4 51.8911C379.25 52.7311 377.46 52.5911 376.55 51.5911L375.76 50.7211L376.43 45.5011C377.51 37.0511 378.08 36.9111 362.12 48.9811C346.25 60.9811 345.96 61.1311 344.73 57.8711C343.98 55.9111 344.73 55.1311 353.95 48.2111C358.98 44.4311 363.1 41.1611 363.1 40.9411C363.1 39.8211 361.93 40.4111 357.28 43.8711C351.33 48.3011 350.81 48.5211 349.27 47.3111C346.69 45.2811 347.4 44.2311 355.73 37.9511C360.42 34.4111 361.5 33.2211 360.02 33.2211C359.76 33.2211 357.25 34.9511 354.44 37.0711C349.24 41.0011 348.7 41.2511 347.26 40.4811C344.13 38.8111 345.25 36.9311 352.73 31.2911C356.17 28.7011 359.05 26.3411 359.15 26.0511C359.56 24.8011 357.71 25.7211 353.75 28.7211C349.09 32.2511 347.47 32.7411 346.23 30.9811C344.59 28.6411 344.74 28.4711 355.78 20.1311L363.64 14.1911L363.42 10.7311C363.11 5.70109 361.03 2.63109 357.23 1.58109C354.64 0.861093 331.21 1.02107 329.09 1.77107M188.79 24.3011C188.47 25.0611 185.23 33.0111 181.58 41.9511C174.58 59.1011 170.19 69.5111 168.87 72.1211C166.38 76.9911 159.41 78.8811 156.35 75.5111L155.16 74.2011L155.28 52.5111L155.4 30.8211L156.27 29.3211C156.95 28.1511 157.65 27.6511 159.48 27.0511C161.79 26.2911 162.89 25.4111 162.89 24.3211C162.89 23.8811 161.22 23.7611 155.02 23.7611H147.15L136.57 44.1911C130.75 55.4211 125.95 64.6711 125.9 64.7311C125.85 64.7911 121.21 55.6011 115.6 44.3011L105.4 23.7611H96.9302C92.2702 23.7611 88.4602 23.8411 88.4602 23.9511C88.4602 25.2411 89.4602 26.3211 90.9002 26.5811C93.1702 26.9911 94.6202 27.8011 95.5602 29.2011L96.3702 30.4011V74.3211L95.1902 75.3411C94.5402 75.9011 93.2402 76.5611 92.3102 76.8211C90.7502 77.2411 89.7402 78.2311 89.7402 79.3611C89.7402 79.6711 92.7102 79.8211 98.9402 79.8211C104 79.8211 108.14 79.6711 108.14 79.4911C108.14 78.5311 106.61 77.2411 104.71 76.6111C103.12 76.0811 102.37 75.5411 101.82 74.5411L101.08 73.1911L100.97 56.0811L100.86 38.9711L106.2 49.8811C109.14 55.8811 113.62 65.0711 116.15 70.3011L120.75 79.8111L121.97 79.7111L123.19 79.6111L133.3 60.0811L143.41 40.5511L143.52 57.2411C143.65 76.3511 143.72 75.9111 140.48 76.7111C138.14 77.2911 137.39 77.7911 137.07 79.0011L136.85 79.8411H157.56C172.07 79.8411 178.27 79.7011 178.27 79.3811C178.27 78.9711 177.12 77.7911 174.8 75.8211C173.61 74.8111 173.78 73.3511 175.78 67.5411L177.58 62.3011H198.31L199.16 64.5511C199.62 65.7911 200.5 68.1211 201.12 69.7311C202.6 73.6511 202.59 75.3211 201.05 76.2711C195.42 79.7711 195.69 79.8411 214.85 79.8411C234.01 79.8411 234.66 79.5811 229.5 76.5711C227.38 75.3411 228.31 73.3211 235.76 63.0511C242.36 53.9511 240.67 53.8211 247.62 63.9111C254.56 73.9911 255.4 75.9211 253.14 76.6311C251.92 77.0211 250.15 78.5511 250.15 79.2311C250.15 79.7411 252.01 79.8411 261.91 79.8411C269.95 79.8411 273.67 79.7011 273.67 79.3811C273.67 78.3311 272.73 77.3111 271.35 76.8511C269.11 76.1111 267.93 74.6711 257.99 60.4811L248.78 47.3311L253.4 41.0211C255.94 37.5511 258.96 33.4211 260.11 31.8411C262.25 28.9111 264.22 27.5511 267.18 26.9611C268.45 26.7111 270.26 25.0711 270.26 24.1711C270.26 23.9711 266.14 23.8011 261.1 23.8011H251.94L252.17 24.6811C252.3 25.1611 253.1 26.0811 253.95 26.7111C257.09 29.0511 257.02 29.3211 251.14 37.1811L246.14 43.8711L241.7 37.2111C239.16 33.4011 237.16 29.9511 237.03 29.1311L236.8 27.7111L238.85 26.7211C240.03 26.1511 241.04 25.3211 241.24 24.7611L241.58 23.8011H217.65V24.5911C217.65 25.6111 218.76 26.5611 220.66 27.1711C223.1 27.9511 224.77 29.9711 232.14 41.0511L239.12 51.5411L231.33 62.3811C217.12 82.1411 218.87 83.2411 203.92 45.0911L195.25 22.9511H189.37L188.8 24.3411M183.95 46.5611C181.54 52.6911 179.63 57.7711 179.72 57.8611C179.81 57.9511 183.63 57.9611 188.22 57.9011L196.56 57.7811L192.54 46.6811C190.33 40.5711 188.48 35.5411 188.43 35.5011C188.38 35.4611 186.36 40.4411 183.95 46.5611ZM90.0202 97.6411C89.8602 97.8011 89.7302 102.221 89.7302 107.481V117.031H93.5802V108.901H100.42V117.031H104.27V97.3011L102.45 97.4311L100.63 97.5611L100.51 101.521L100.39 105.481H93.5802V97.3511H91.9402C91.0402 97.3511 90.1702 97.4811 90.0102 97.6411M111.55 107.191V117.031H123.53V113.611H114.97V108.901H121.81V105.481H114.97V101.201H123.53V97.3511H111.55V107.191ZM132.93 98.3211C132.7 98.8511 131.64 102.941 130.57 107.411C129.5 111.881 128.53 115.881 128.4 116.291C128.21 116.931 128.47 117.041 130.12 117.041H132.07L132.55 115.111L133.03 113.181H139.17L139.69 115.111L140.2 117.041H142.16C143.82 117.041 144.08 116.931 143.89 116.291C143.76 115.881 142.79 111.881 141.72 107.411C140.65 102.941 139.59 98.8511 139.36 98.3211L138.94 97.3611H133.34L132.92 98.3211M149.62 107.191V117.031H160.32V113.611H153.05V97.3511H149.63V107.191M164.45 97.6411C164.29 97.8011 164.16 98.6611 164.16 99.5711V101.211H168.87V117.041H172.72V101.211H177.43V97.3611H171.08C167.59 97.3611 164.61 97.4911 164.45 97.6511M182.87 97.6211C182.7 97.7911 182.56 102.221 182.56 107.481V117.031H186.41V108.901H193.25V117.031H197.12L197 107.301L196.88 97.5711H193.46L193.34 101.531L193.22 105.491H186.44L186.32 101.531L186.2 97.5711L184.69 97.4411C183.86 97.3711 183.04 97.4511 182.87 97.6211ZM207.13 97.7711C201.7 99.9711 201.67 113.881 207.09 116.561L209.16 117.581L212.44 117.201L215.72 116.821V113.471L212.43 113.571C207.21 113.721 204.59 106.441 208.24 101.951L209.02 100.991L212.48 101.091L215.94 101.191V97.8811L214.6 97.6111C212.73 97.2411 208.2 97.3311 207.13 97.7611M224.9 98.3211C224.67 98.8511 223.61 102.941 222.54 107.411C221.47 111.881 220.5 115.881 220.37 116.291C220.18 116.931 220.44 117.041 222.09 117.041H224.04L224.52 115.111L225 113.181H231.14L231.66 115.111L232.17 117.041H234.13C235.8 117.041 236.05 116.931 235.85 116.291C235.72 115.881 234.75 111.881 233.68 107.411C232.61 102.941 231.56 98.8511 231.33 98.3211L230.91 97.3611H225.31L224.89 98.3211M241.6 107.131V117.031H245.02V110.611H248.76L249.99 113.821L251.21 117.031H253.28C255.65 117.031 255.62 117.311 253.62 112.571L252.37 109.611L253.37 108.821C255.45 107.181 255.86 102.331 254.12 99.9811C252.8 98.1911 251.23 97.6911 246.24 97.4511L241.6 97.2311V107.131ZM261.58 97.6311C261.42 97.7911 261.28 102.231 261.28 107.481V117.031H273.69V113.611H265.13V108.901H271.97V105.481H265.13V101.201H273.74L273.61 99.3811L273.48 97.5611L267.68 97.4411C264.49 97.3711 261.75 97.4511 261.58 97.6211M135.69 101.901C135.18 104.131 134.18 108.251 133.95 109.011C133.76 109.661 134.04 109.761 136.06 109.761H138.39L137.36 105.401C136.19 100.451 136.07 100.201 135.68 101.901M227.67 101.901C227.16 104.131 226.16 108.251 225.93 109.011C225.74 109.661 226.02 109.761 228.04 109.761H230.37L229.34 105.401C228.17 100.451 228.05 100.201 227.66 101.901M245.02 104.251V107.301L247.44 107.101C252.93 106.641 253.04 101.211 247.56 101.211H245.02V104.261M48.1202 107.231C47.2302 107.441 42.4202 109.171 37.4302 111.081C23.0102 116.601 14.8902 116.451 2.92023 110.421C-2.04977 107.921 -0.949784 109.321 8.34022 117.341C27.6802 134.021 30.4102 134.811 47.0502 128.561C65.0002 121.821 75.0602 121.601 84.5702 127.741C87.1602 129.411 88.2302 129.821 87.9502 129.031C87.4502 127.611 66.5302 110.551 63.3302 108.941C59.3502 106.941 52.5602 106.181 48.1202 107.221" fill="white"/>
</svg>
