<svg width="424" height="73" viewBox="0 0 424 73" fill="none" xmlns="http://www.w3.org/2000/svg">
<path d="M80.6 51.63L77.98 53.21C68.58 43.17 72.42 34.46 54.66 26L70.39 16.95L54.28 0L33.62 10.6801C32.57 3.93005 27.46 0.600049 21.25 0.550049C15.17 0.510049 9.25 0.699997 4.16 5.81L11.88 5.38C14.81 5.22 18.54 5.80001 20.33 8.51001C21.85 10.81 21.85 14.9 21.03 17.59L2.32 28.29C12.02 32.71 19.78 36.52 21.65 47.37C13.12 49.3 6.03 53.1101 0 58.7401V59.53C15.18 55.58 29.13 52.42 44.17 61.6L56.35 51.95C55.06 50.06 53.5 51.77 52.47 52.31L41.69 48.33V33.22C60.47 32.19 58.43 56.8 70.84 61.36L81.5 53.48C81.81 53.25 80.9 51.41 80.56 51.62L80.6 51.63ZM13.12 24.73L21.38 19.9901L21.48 29.71L13.12 24.73ZM39.02 47.76L34.02 47.25L34.13 13.33C35.37 12.07 37.29 11.09 39.11 10.72L39.02 47.76ZM41.95 30.47L41.83 9.11005L45.41 7.01001L58.55 21.23L41.95 30.47Z" fill="black"/>
<path d="M336 17.24C332.18 19.58 328.48 21.93 324.65 24.97L329.61 24.42C330.62 24.31 332.29 26.15 332.8 27.11C330.03 32.53 329.12 38.43 330.14 44.53L332.36 57.8199C333.96 67.4099 323.78 69.47 326.92 72.1H327.46C356.4 58.5 330.18 44.85 346.68 25.34L336.01 17.24H336Z" fill="black"/>
<path d="M315.68 52.11L315.65 28.19C315.65 26.03 322.83 20.08 319.33 20.58C318.89 20.64 317.94 20.92 317.54 21.19L314.23 23.4301L306.72 17.61L292.68 26.97C290.69 22.37 288.91 19.36 285.34 17.03L269.25 26.92C268.88 21.83 265.96 17.28 261.26 17.37C258.29 19.51 255.35 21.9701 252.25 24.7401L256.82 25.16C257.64 25.24 258.41 28.14 258.41 28.97L258.27 52.04L255.13 55.35L263.76 61.32L271.91 55.1801L268.96 51.67L268.99 29.69C271.56 28.01 274.46 26.05 277.22 24.84C280.08 23.58 281.69 28.07 281.67 30.46L281.47 51.39C281.46 52.56 279.31 54.33 278.47 55.14L286.92 61.39L295.23 55.32L292.4 51.71L292.59 29.09L300.04 24.78C301.56 25.51 303.97 27.5 304.76 28.89L304.83 52.51C304.84 55.86 307.94 61.72 311.82 60.72C315.34 59.81 319.27 56.39 321.83 53.94C319.78 53.63 315.7 54.03 315.7 52.1L315.68 52.11Z" fill="black"/>
<path d="M128.89 52.9401L127.47 53.0801C126.7 53.1601 125.15 52.9301 124.49 52.6101C123.96 52.3501 123.41 50.7501 123.42 50.1101L123.56 25.0101L126.59 22.0601L118.11 16.3101L109.83 22.1501C111.36 23.8401 112.74 25.6301 112.73 27.0701L112.63 47.9401C110.08 49.6701 107.19 51.6801 104.31 52.8801C101.85 53.9001 100.09 49.7901 100.11 47.7301L100.29 25.9201C100.29 24.9201 102.11 23.3101 103.29 22.0801L94.79 16.3301L84.36 23.1601C84.01 23.3901 84.86 25.0901 85.25 24.9201L86.76 24.2801C87.19 24.1001 88.06 24.0601 88.53 24.1001C88.88 24.1301 89.55 25.6001 89.54 26.0501L89.44 48.5501C89.42 53.5401 92.29 59.2601 97.25 60.3601L112.35 51.1201C112.98 55.8801 115.05 59.4601 119.81 60.7901L129 54.3901C129.28 54.1901 129.22 52.9301 128.89 52.9601V52.9401Z" fill="black"/>
<path d="M170.7 11.0701C169.16 10.3301 166.45 10.9402 165.79 12.6802L168.76 17.2802C165.8 23.5902 152.67 18.1902 147.91 16.7802C143.39 19.4402 138.76 22.0702 133.87 24.2202L133.82 38.6002L144.62 43.5801L130.82 59.3701C133.04 60.0401 134.35 60.0501 135.54 59.5701C142.37 56.8001 149.21 57.7902 155.25 60.9202C159.79 57.8702 164.16 55.8701 169.29 54.1201L169.37 37.1401L159.28 31.7302L172.06 16.9702C173.24 15.6002 172.17 11.7701 170.71 11.0701H170.7ZM159.76 41.2902L159.57 53.1102C153.42 50.3402 148.23 50.1102 141.44 50.9702L152.96 38.3801L159.75 41.2902H159.76ZM150.66 37.2601L144.26 34.4601L144.43 24.1102C150.41 26.1502 155.51 26.4401 160.98 25.9001L150.66 37.2601Z" fill="black"/>
<path d="M211.58 24.35L211.37 47.87C211.35 49.76 210.15 52.26 209.21 53.78C216.11 55.35 222.6 57.98 228.73 61.16C234.34 57.72 239.4 55.84 245.39 54.16L245.46 23.63C238.66 22.41 233.43 19.6 227.87 17.04C222.85 20.18 217.72 23.21 211.59 24.35H211.58ZM234.69 53.41L222.44 49.83L222.61 24.4301L234.78 28.34L234.7 53.41H234.69Z" fill="black"/>
<path d="M386.76 29.8201L372.24 17.3901C367.08 20.1801 362.6 22.4002 356.65 24.7302L356.43 51.4501C356.42 52.7101 354.64 55.2701 353.94 56.1201C359.25 57.4401 364.39 59.1702 369.11 61.4802L385.12 52.0101C384.2 51.3201 382.98 50.8701 382.47 51.1501L376.23 54.4601L367.55 51.2802C367.4 48.4102 367.4 44.6702 367.61 41.4802L386.75 29.8002L386.76 29.8201ZM366.98 39.2402L367.04 24.1201L377.56 32.7402L366.97 39.2402H366.98Z" fill="black"/>
<path d="M412.57 54.56L403.99 51.6L404.08 41.75L423.27 30.01L408.8 17.54C403.36 20.5 399.12 22.57 393.29 24.92L393.1 51.02C393.09 52.51 391.53 55.12 390.68 56.25C395.84 57.59 400.81 59.35 405.76 61.65L421.87 52.08C417.59 49.73 416 54.65 412.57 54.57V54.56ZM403.53 24.09L414.04 32.78L403.43 39.39L403.53 24.09Z" fill="black"/>
<path d="M191.47 6.22998L176.41 21.7599C176.51 22.9499 178.49 23.44 180.48 23.27L180.44 48.35C180.44 49.8 178.62 52.56 177.8 53.61C182.88 55.43 187.25 57.71 191.76 60.98L201.81 53.41C197.8 49.42 200.92 57.9099 191.65 49.9399L191.72 23.33L202.79 23.27L202.99 18.58L191.79 18.3199L191.45 6.23999L191.47 6.22998Z" fill="black"/>
<path d="M339.74 3.84009C338.82 7.66009 338.27 9.8501 337.97 13.4801L346.6 3.86011L339.73 3.84009H339.74Z" fill="black"/>
</svg>
