<svg width="354" height="66" viewBox="0 0 354 66" fill="none" xmlns="http://www.w3.org/2000/svg">
<path d="M111.73 0L83.4701 52.26L69.17 25.82L83.4701 0.0600014H69.9701L62.5901 13.73L55.2101 0.0600014H41.76L56.0601 25.82L41.76 52.26L13.5 0H0L36.4301 65.54H47.1001L62.65 37.57L78.2001 65.54H88.87L125.3 0H111.74H111.73ZM158.83 13.34L172.11 37.85H145.56L158.84 13.34H158.83ZM153.49 0L117.06 65.54H130.56L140.09 47.95H177.6L187.13 65.54H200.63L164.2 0H153.48H153.49ZM262.44 0L234.18 52.26L205.92 0H192.42L228.85 65.54H239.52L275.95 0H262.45H262.44ZM290.07 0V65.54H348.12L353.85 55.04H301.59V37.85H333.14L338.7 27.69H301.59V10.27H348.29L353.91 0H290.08H290.07Z" fill="white"/>
</svg>
