<svg width="85" height="67" viewBox="0 0 85 67" fill="none" xmlns="http://www.w3.org/2000/svg">
<path d="M40.3995 23.4142H27.1201V25.2166H40.3995V23.4142Z" fill="#59B94B"/>
<path d="M13.2794 14.9694H0V16.7718H13.2794V14.9694Z" fill="#59B94B"/>
<path d="M23.4854 3.8147e-06V13.3458H25.2788V3.8147e-06H23.4854Z" fill="#59B94B"/>
<path d="M16.9121 40.1893V26.8435H15.1187V40.1893H16.9121Z" fill="#59B94B"/>
<path d="M21.4541 21.335V18.8306H18.9621V21.335H21.4541Z" fill="#59B94B"/>
<path d="M32.3249 38.1743C34.0042 38.1743 34.7464 39.1126 34.7464 40.7226V46.9905C34.7464 47.8917 34.4979 48.3339 33.2787 48.3339H29.3863C27.3846 48.3339 26.6592 47.3753 26.6592 45.2658C26.6592 43.1562 27.4014 42.255 29.3863 42.255H33.7556V40.5505C33.7556 39.7843 33.3929 39.0755 32.3249 39.0755H27.4216V38.1743H32.3249ZM29.1209 43.1596C27.9018 43.1596 27.6902 44.0405 27.6902 45.2691C27.6902 46.4977 27.8985 47.4361 29.1209 47.4361H33.2787C33.6213 47.4361 33.7556 47.2065 33.7556 46.977V43.163H29.1209V43.1596Z" fill="#0D0D0D"/>
<path d="M36.0422 47.4327H41.8389C43.0412 47.4327 43.2898 46.8015 43.2898 45.7855C43.2898 44.5772 42.5476 44.4051 40.5056 43.9258L38.7491 43.5241C37.0699 43.1393 35.8877 42.5655 35.8877 40.6281C35.8877 39.0384 36.8986 38.1743 38.4233 38.1743H43.6693V39.0755H38.4233C37.2781 39.0755 36.9154 39.5548 36.9154 40.6281C36.9154 42.0289 37.6207 42.2955 39.0883 42.6398L40.9187 43.0617C43.189 43.5781 44.3141 43.9055 44.3141 45.7822C44.3141 47.3551 43.7801 48.3305 41.8356 48.3305H36.0388V47.4293L36.0422 47.4327Z" fill="#0D0D0D"/>
<path d="M45.4639 34.9171H46.4546V38.1743H50.3437C52.5167 38.1743 53.4705 39.2847 53.4705 41.5866V48.3338H52.4797V41.4719C52.4797 39.9395 51.8685 39.0754 50.3437 39.0754H46.4546V48.3338H45.4639V34.9171Z" fill="#0D0D0D"/>
<path d="M57.1943 48.3338C55.955 48.3338 55.1523 48.1819 55.1523 46.7441V34.9171H56.1431V38.1743H59.3269C62.5679 38.1743 63.4646 39.9361 63.4646 43.1967C63.4646 46.4572 62.5679 48.3338 59.3269 48.3338H57.1909H57.1943ZM56.1464 46.6462C56.1464 47.1457 56.1666 47.4326 56.8517 47.4326H59.3303C62.0003 47.4326 62.4402 45.6876 62.4402 43.1967C62.4402 40.7057 62.0003 39.0754 59.3303 39.0754H56.1464V46.6462Z" fill="#0D0D0D"/>
<path d="M67.9523 48.3339C65.1682 48.3339 64.4629 46.2243 64.4629 43.3317C64.4629 39.8991 65.3798 38.0596 68.792 38.0596C71.2907 38.0596 73.1412 39.0553 73.1412 41.931C73.1412 43.0988 72.8356 43.5984 71.6903 43.5984H65.4906C65.4906 45.3805 65.7962 47.4327 67.9523 47.4327H72.9128V48.3339H67.9523ZM71.6903 42.7006C72.0161 42.7006 72.1101 42.4339 72.1101 42.2415V42.1065C72.1101 39.6156 70.891 38.9641 68.8088 38.9641C66.5586 38.9641 65.4906 39.7877 65.4906 42.7006H71.6903Z" fill="#0D0D0D"/>
<path d="M77.6213 48.3339C74.8371 48.3339 74.1318 46.2243 74.1318 43.3317C74.1318 39.8991 75.0487 38.0596 78.4609 38.0596C80.9596 38.0596 82.8101 39.0553 82.8101 41.931C82.8101 43.0988 82.5045 43.5984 81.3593 43.5984H75.1595C75.1595 45.3805 75.4652 47.4327 77.6213 47.4327H82.5818V48.3339H77.6213ZM81.3593 42.7006C81.685 42.7006 81.7791 42.4339 81.7791 42.2415V42.1065C81.7791 39.6156 80.56 38.9641 78.4777 38.9641C76.2275 38.9641 75.1595 39.7877 75.1595 42.7006H81.3593Z" fill="#0D0D0D"/>
<path d="M30.3601 63.4685C27.1192 63.4685 26.5449 61.629 26.5449 58.3685C26.5449 54.3418 27.9958 53.1942 31.4281 53.1942C34.2896 53.1942 36.2912 53.9604 36.2912 57.2209C36.2912 58.3719 35.8714 59.1381 34.7262 59.1381H28.8522C28.8522 60.6704 29.1175 61.7438 31.0251 61.7438H35.9654V63.4685H30.3568H30.3601ZM33.4869 57.4099C33.9268 57.4099 33.9839 57.1028 33.9839 56.8159C33.9839 55.4725 32.7648 54.919 31.4281 54.919C29.5205 54.919 28.8522 55.6852 28.8522 57.4099H33.4869Z" fill="#0D0D0D"/>
<path d="M37.3594 55.0337C37.3594 53.8828 37.9303 53.309 39.0756 53.309H42.6221C44.9126 53.309 46.5515 54.0954 46.5515 56.7787V63.4685H44.3215V57.3728C44.3215 55.8404 43.7304 55.0337 42.2057 55.0337H40.1637C39.7808 55.0337 39.5928 55.2261 39.5928 55.6075V63.4651H37.3627V55.0303L37.3594 55.0337Z" fill="#0D0D0D"/>
<path d="M51.4344 63.4685C48.1934 63.4685 47.6191 61.629 47.6191 58.3685C47.6191 54.3418 49.07 53.1942 52.5024 53.1942C55.3638 53.1942 57.3654 53.9604 57.3654 57.2209C57.3654 58.3719 56.9456 59.1381 55.8004 59.1381H49.9264C49.9264 60.6704 50.1917 61.7438 52.0993 61.7438H57.0397V63.4685H51.431H51.4344ZM54.5611 57.4099C55.0011 57.4099 55.0582 57.1028 55.0582 56.8159C55.0582 55.4725 53.839 54.919 52.5024 54.919C50.5948 54.919 49.9264 55.6852 49.9264 57.4099H54.5611Z" fill="#0D0D0D"/>
<path d="M58.4346 57.1433C58.4346 54.4194 59.8082 53.309 62.5151 53.309H64.0231V55.0337H63.0894C61.296 55.0337 60.668 55.9349 60.668 57.7373V63.4685H58.4379V57.1433H58.4346Z" fill="#0D0D0D"/>
<path d="M67.9726 63.4685C64.7317 63.4685 63.835 61.4366 63.835 58.3685C63.835 55.3004 64.7317 53.309 67.9726 53.309H71.7307C72.876 53.309 73.4469 53.8828 73.4469 55.0337V62.6821C73.4469 65.5578 72.1304 66.8235 69.0809 66.8235H64.5402V65.0988H69.0809C70.2261 65.0988 71.0658 64.5824 71.2169 63.4685H67.976H67.9726ZM68.5234 55.0337C66.3672 55.0337 66.1389 56.4513 66.1389 58.3685C66.1389 60.2856 66.3672 61.7438 68.5234 61.7438H71.2135V55.6109C71.2135 55.2261 71.0221 55.0371 70.6426 55.0371H68.5267L68.5234 55.0337Z" fill="#0D0D0D"/>
<path d="M78.9748 66.7459H76.7045L78.2494 63.4314L73.749 53.309H76.0563L79.2972 61.1092L82.7296 53.309H84.9999L78.9715 66.7459H78.9748Z" fill="#0D0D0D"/>
</svg>
