<svg width="105" height="29" viewBox="0 0 105 29" fill="none" xmlns="http://www.w3.org/2000/svg">
<path fill-rule="evenodd" clip-rule="evenodd" d="M52.317 0.950544C52.8611 1.55669 53.1504 2.3557 53.1366 3.18914C53.1366 4.95936 51.8141 6.34385 50.1472 6.34385C48.4735 6.34385 47.1578 4.95247 47.1578 3.16848C47.1578 1.41893 48.5148 0 50.1817 0C51.0013 0 51.759 0.337512 52.317 0.950544ZM47.7847 8.74776L52.4892 7.93498V27.7724H47.7847V8.74776ZM44.2649 14.4372V25.031C42.3914 27.0147 39.6224 28.1375 36.3506 28.1375C32.2867 28.1375 29.373 24.9483 29.373 21.2288C29.4488 17.3302 32.2316 14.8092 36.7088 14.8092H39.4984V13.7967C39.4984 12.0678 38.7958 11.2412 37.0945 11.1654C35.6893 11.1035 34.1258 11.5718 32.6586 12.2675L31.9423 12.6257L30.6818 9.63631L31.2121 9.3539C33.2854 8.25871 35.3036 7.58369 37.5491 7.58369C40.7933 7.58369 44.2649 9.27814 44.2649 14.4372ZM39.4915 18.1843H37.6042C35.2416 18.1843 34.3737 19.8719 34.3393 21.3528C34.3117 23.1437 35.159 24.6797 37.0463 24.6797C38.0795 24.6797 39.0231 24.3835 39.4915 24.0391V18.1843ZM92.1364 22.9508L93.4658 25.8438C93.4658 25.8438 91.9642 27.001 89.9323 27.6622C88.8715 28.0135 87.7144 28.1857 86.5985 28.1857C84.5597 28.1857 82.8032 27.5727 81.5289 26.4499C79.4488 24.6177 78.3054 21.3872 78.3398 18.1843C78.3811 13.1216 80.5371 7.73522 86.0612 7.73522C91.0137 7.73522 93.273 10.9381 93.3625 17.9708V18.4667H83.2303C83.127 20.5813 83.5058 22.572 84.3461 23.5432C84.9178 24.1907 85.7926 24.6384 87.0807 24.6384C89.8703 24.6384 91.9023 23.1437 92.1364 22.9508ZM83.368 15.3396H88.4583C88.4583 13.8518 88.1483 11.4479 86.0612 11.4479C84.2084 11.4479 83.4507 13.4247 83.368 15.3396ZM64.3365 7.6319C65.7623 7.6319 66.9884 7.96253 67.4981 8.23116L66.1756 11.3928C66.1756 11.3928 65.4179 11.131 64.2538 11.1792C62.9865 11.2343 61.664 11.7991 61.0372 12.4466V27.7931H56.2431L56.25 11.4892C59.1016 8.27249 62.2701 7.6319 64.3365 7.6319ZM104.046 24.6659V27.7931C104.046 27.7931 103.04 27.9928 102.241 27.9928C98.4941 27.9928 96.2486 26.1193 96.2486 21.7454V3.28558L100.967 2.43835V22.0692C100.967 23.5845 101.373 24.4937 103.329 24.6522C103.598 24.6728 104.046 24.6659 104.046 24.6659ZM73.5871 7.94186H76.6867V11.6063H73.5871V22.0416C73.5871 23.4054 73.9866 24.5902 76.0117 24.6659C76.2803 24.6728 76.6316 24.6728 76.6867 24.6797V27.7655C76.6867 27.7655 75.8188 27.9515 74.8958 27.9515C71.0592 27.9515 68.7724 25.9815 68.7724 21.835V3.28558L73.5871 2.4659V7.94186Z" fill="#ED1D24"/>
<path d="M6.71999 27.7949C5.66613 27.7949 4.90156 27.4091 4.44006 26.6446C3.28977 24.7228 4.4745 22.3189 5.03243 21.3821C5.41816 20.7278 5.99675 20.0321 6.5409 19.5706C7.08505 19.116 7.9185 18.565 8.79328 18.565H8.86215C9.77826 18.5925 10.7495 19.2262 10.7908 20.2456C10.8252 21.0102 10.3155 21.5406 9.95046 21.9332L9.88847 22.0021C9.59228 22.3189 9.2961 22.6082 9.01369 22.8906C8.51087 23.3866 8.0356 23.8549 7.5741 24.4335C7.5741 24.4335 6.29293 26.4035 8.40066 25.8042C8.51776 25.7629 8.64174 25.7078 8.78639 25.6527L8.85527 25.6252C9.35809 25.4254 9.83336 25.1499 10.2535 24.9019L10.3362 24.8537C11.2385 24.3371 12.2442 23.5725 13.3462 22.5807C15.4953 20.6314 17.0451 18.5925 17.9474 16.533C18.6087 15.0107 18.7189 13.3576 18.2367 12.3038C17.9612 11.7045 17.4928 11.3188 16.8591 11.1672C16.6525 11.1121 16.4389 11.0984 16.2254 11.0984C15.7915 11.0984 15.3162 11.1879 14.7721 11.3877C12.6781 12.1591 10.8183 13.4816 9.02058 14.7559L8.80016 14.9143C8.57975 15.0727 8.36622 15.2243 8.13892 15.3758C8.06315 15.4309 7.98049 15.486 7.90472 15.548C6.63733 16.3746 4.79135 17.3458 3.10379 17.3458C2.27723 17.3458 1.57466 17.1116 1.00984 16.6432C0.389923 16.1197 0.045523 15.4171 0.00419507 14.563C-0.0922368 12.538 1.492 10.1478 2.88338 8.722C3.48263 8.16407 4.1301 7.64059 4.79824 7.15154C4.89467 7.09643 4.97733 7.04133 5.05309 6.97934C5.15641 6.90357 5.25285 6.84158 5.34928 6.77959L5.36305 6.76581L5.46637 6.69693C8.75884 4.41011 11.8653 3.25293 14.7032 3.25293C17.8028 3.25293 19.4421 4.64431 19.5937 4.77518C20.9093 5.76016 21.8185 7.06888 22.2869 8.65312C22.9206 10.8228 22.404 13.1441 22.032 14.3357C21.1228 17.2631 19.5385 19.667 16.9004 22.1123C15.7088 23.2212 14.5447 24.1442 13.36 24.9364L13.0569 25.1361C11.9342 25.8938 10.7701 26.6721 9.30299 27.2301C8.32489 27.6089 7.457 27.7949 6.71999 27.7949Z" fill="#ED1D24"/>
</svg>
