<svg width="24" height="24" viewBox="0 0 24 24" fill="none" xmlns="http://www.w3.org/2000/svg">
<g clip-path="url(#clip0_648_470)">
<mask id="mask0_648_470" style="mask-type:luminance" maskUnits="userSpaceOnUse" x="0" y="0" width="24" height="24">
<path d="M24 0H0V24H24V0Z" fill="white"/>
</mask>
<g mask="url(#mask0_648_470)">
<path d="M7.443 5.35156C8.082 5.35156 8.673 5.40156 9.213 5.54956C9.70301 5.63961 10.1708 5.82439 10.59 6.09356C10.984 6.34056 11.279 6.68756 11.475 7.13256C11.672 7.57756 11.77 8.12256 11.77 8.71556C11.77 9.40856 11.623 10.0016 11.279 10.4466C10.984 10.8926 10.492 11.2876 9.902 11.5846C10.738 11.8326 11.377 12.2776 11.77 12.8706C12.164 13.4646 12.41 14.2066 12.41 15.0476C12.41 15.7406 12.262 16.3336 12.016 16.8286C11.77 17.3236 11.377 17.7686 10.934 18.0656C10.4528 18.3839 9.92084 18.6179 9.361 18.7576C8.771 18.9066 8.181 19.0056 7.591 19.0056H1V5.35156H7.443ZM7.049 10.8916C7.59 10.8916 8.033 10.7436 8.377 10.4966C8.721 10.2496 8.869 9.80356 8.869 9.25956C8.869 8.96256 8.819 8.66556 8.721 8.46856C8.623 8.27056 8.475 8.12156 8.279 7.97356C8.082 7.87456 7.885 7.77556 7.639 7.72656C7.393 7.67656 7.148 7.67656 6.852 7.67656H4V10.8926H7.05L7.049 10.8916ZM7.197 16.7296C7.492 16.7296 7.787 16.6796 8.033 16.6306C8.28137 16.5833 8.51628 16.4819 8.721 16.3336C8.92138 16.1888 9.08903 16.0034 9.213 15.7896C9.311 15.5426 9.41 15.2456 9.41 14.8996C9.41 14.2066 9.213 13.7116 8.82 13.3656C8.426 13.0686 7.885 12.9206 7.246 12.9206H4V16.7306L7.197 16.7296ZM16.689 16.6796C17.082 17.0756 17.672 17.2736 18.459 17.2736C19 17.2736 19.492 17.1256 19.885 16.8786C20.279 16.5816 20.525 16.2846 20.623 15.9876H23.033C22.639 17.1746 22.049 18.0156 21.263 18.5596C20.475 19.0546 19.541 19.3516 18.41 19.3516C17.6864 19.3538 16.9688 19.2194 16.295 18.9556C15.6887 18.7281 15.148 18.3544 14.721 17.8676C14.2643 17.4121 13.9267 16.8513 13.738 16.2346C13.492 15.5916 13.393 14.8996 13.393 14.1076C13.393 13.3656 13.492 12.6736 13.738 12.0296C13.9745 11.4097 14.3245 10.8392 14.77 10.3476C15.213 9.90256 15.754 9.50756 16.344 9.25956C17.0007 8.99563 17.7022 8.86116 18.41 8.86356C19.246 8.86356 19.984 9.01256 20.623 9.35856C21.263 9.70456 21.754 10.1006 22.148 10.6946C22.5499 11.2651 22.8494 11.9013 23.033 12.5746C23.131 13.2666 23.18 13.9596 23.131 14.7506H16C16 15.5426 16.295 16.2836 16.689 16.6796ZM19.787 11.4856C19.443 11.1396 18.902 10.9416 18.262 10.9416C17.82 10.9416 17.475 11.0406 17.18 11.1886C16.885 11.3376 16.689 11.5356 16.492 11.7336C16.311 11.9248 16.1912 12.1658 16.148 12.4256C16.098 12.6736 16.049 12.8706 16.049 13.0686H20.475C20.377 12.3266 20.131 11.8326 19.787 11.4856ZM15.459 6.29156H20.967V7.62756H15.46V6.29156H15.459Z" fill="white"/>
</g>
</g>
<defs>
<clipPath id="clip0_648_470">
<rect width="24" height="24" fill="white"/>
</clipPath>
</defs>
</svg>
