<svg width="33" height="32" viewBox="0 0 33 32" fill="none" xmlns="http://www.w3.org/2000/svg">
<rect width="33" height="32" fill="#D8D8D8"/>
<rect width="1920" height="1080" transform="translate(-1604.66 -916)" fill="#0D0D0D"/>
<rect x="-341.663" y="-108" width="547" height="179" rx="10" fill="#1D1D1D"/>
<path d="M19.1442 24.1858L19.1438 24.1855C18.927 23.9489 18.6018 23.9222 18.2934 23.9222C17.9682 23.9222 17.6648 23.9697 17.2506 24.2501C17.769 22.9592 18.5884 21.1947 18.5966 21.176L18.6371 21.0901L18.5422 21.0993C18.5374 21.0995 18.0422 21.1505 17.044 21.3856L17.0159 21.3928L16.9423 21.593L14.8608 27.0177C14.8608 27.0177 14.7081 27.346 14.2536 27.6099C14.0158 27.7475 13.882 27.7643 13.8028 27.776C13.7263 27.7904 13.7056 27.7172 13.715 27.6919C13.7751 27.5259 13.9442 27.0644 13.9442 27.0644C14.4485 25.6518 14.7621 24.801 14.9021 24.4632L15.0851 24.0213H13.7109C13.7109 24.0213 13.6869 24.0657 13.678 24.0815C13.5196 23.9862 13.3341 23.9313 13.1167 23.9313C12.8118 23.9313 12.4192 24.1052 11.8815 24.4793C11.3289 24.8676 10.8539 25.3188 10.4668 25.8224C9.98463 26.4596 9.74023 27.0965 9.74023 27.7154C9.74023 28.0005 9.80645 28.2484 9.9377 28.4529C10.046 28.6242 10.2604 28.8291 10.6637 28.8291C11.1865 28.8291 11.6921 28.6344 12.169 28.2615C12.2058 28.3892 12.2846 28.507 12.4348 28.6133C12.6307 28.7541 12.906 28.8223 13.0168 28.8277C13.1278 28.8328 13.537 28.8133 13.8996 28.6268C14.2071 28.4685 14.3975 28.2644 14.5697 27.9997C14.6587 28.2157 14.7759 28.3989 14.9215 28.543C15.1114 28.7329 15.3505 28.8291 15.6315 28.8291C16.4187 28.8291 17.2447 28.4412 18.0862 27.6774C18.9948 26.8547 19.4565 25.9622 19.4565 25.0242C19.4565 24.6974 19.3514 24.4156 19.1442 24.1858ZM17.2819 27.0118C16.7456 27.8083 16.569 27.8556 16.3795 27.8702C16.2709 27.8794 16.1912 27.8451 16.1297 27.791C16.0933 27.7594 16.0535 27.6977 16.0594 27.6124C16.0594 27.6124 16.0713 27.5088 16.0816 27.4675C16.0927 27.4262 16.2401 26.9047 16.4849 26.3523C16.7295 25.7988 16.8272 25.6592 17.0153 25.4378C17.3308 25.0662 17.6784 24.911 17.8521 25.0076C18.1935 25.1969 17.6918 26.4015 17.2819 27.0118ZM11.3295 27.7826C11.0479 27.6457 11.2675 27.0323 11.7536 26.1552C12.1495 25.4394 12.5436 25.0791 12.9162 25.0791C12.9623 25.0791 13.0143 25.0894 13.0792 25.1619C13.1389 25.2288 13.1662 25.2931 13.1662 25.364C13.1662 25.5609 13.0612 25.9611 12.5586 26.7447C12.1166 27.4334 11.5596 27.8942 11.3295 27.7826Z" fill="#FDFAEE"/>
<path d="M28.3045 24.3206C28.116 24.12 27.8502 24.0184 27.5142 24.0184C27.2607 24.0184 27.0035 24.1325 26.7359 24.3231C26.7665 24.2369 26.8233 24.0778 26.8233 24.0778L25.3912 24.0762L24.2879 27.3666C24.1331 27.5298 23.9412 27.6774 23.8579 27.7271C23.6785 27.8315 23.4233 27.9277 23.2079 27.8406C23.2079 27.8406 23.1039 27.7881 23.1273 27.7255C23.1977 27.5176 23.5325 26.533 23.5325 26.533C23.8271 25.6625 24.0873 24.9393 24.2859 24.4404L24.4594 24.0036H23.01L22.9312 24.2102C22.6753 24.8884 22.4626 25.4002 22.2811 25.7761C21.9966 26.3743 21.7117 26.836 21.435 27.1491C21.1805 27.4325 20.9528 27.6603 20.6642 27.6591C20.6413 27.6591 20.6152 27.6593 20.5938 27.6543C20.5536 27.6447 20.5225 27.5951 20.5375 27.5627C20.7552 26.9875 21.925 24.0036 21.925 24.0036H20.4442C20.4442 24.0036 19.0285 27.5972 19.0047 27.9154C18.9856 28.1773 19.1216 28.3982 19.3034 28.5715C19.4838 28.7428 19.7046 28.8291 19.9595 28.8291C20.43 28.8291 20.9643 28.5524 21.5809 28.0106C21.5803 28.0128 21.5758 28.0239 21.5758 28.0239C21.5758 28.0252 21.5476 28.1697 21.5476 28.1697C21.5476 28.3076 21.6243 28.5055 21.989 28.6706C22.2249 28.7757 22.447 28.8291 22.6482 28.8291C22.9974 28.8291 23.2875 28.7789 23.6562 28.528C23.8147 28.4204 23.9245 28.3107 24.009 28.2007L23.7981 28.8291H25.2259L25.2941 28.6011C25.4684 28.0136 25.6411 27.5045 25.8084 27.0888C26.0432 26.4905 26.2802 26.0078 26.5135 25.6528C26.7817 25.2479 26.9289 25.1899 27.0578 25.1385C27.0578 25.1385 27.155 25.091 27.3398 25.0725C27.4957 25.0567 27.6523 25.177 27.6973 25.2701C27.7468 25.3718 27.6842 25.5451 27.6266 25.688C27.5746 25.8171 27.5376 25.9102 27.5779 25.9706C27.5904 25.9897 27.6165 26.0123 27.6657 26.0123C27.9485 26.0123 28.1859 25.9061 28.3522 25.7069C28.5056 25.52 28.5833 25.297 28.5833 25.0435C28.5833 24.7582 28.4895 24.5151 28.3045 24.3206Z" fill="#FDFAEE"/>
<path d="M7.63111 20.9201L7.63325 20.9218C7.61962 20.9128 6.23155 20.0788 4.8906 20.0052C3.30098 19.9179 0.485314 20.6248 0.0117188 23.8261L0.117852 23.8477C0.491158 22.4224 1.83638 21.0731 3.31598 20.6392C4.21059 20.3781 5.2127 20.4794 6.13691 20.9253C7.24475 21.483 8.14326 22.7959 8.27257 24.0465C8.34754 24.7735 8.20518 25.825 7.10084 26.7047C6.17897 27.4517 4.58857 27.7393 4.00709 27.2643C3.73563 27.0423 3.811 26.6916 3.97594 26.1857L5.79437 21.5578L5.77704 21.5339C5.74199 21.485 4.91203 20.3392 4.11907 20.707C3.86455 20.8254 2.16782 26.4421 1.65372 28.1607L1.63931 28.2092L1.68644 28.2267C4.1177 29.125 6.23252 29.1587 7.97326 28.3248C9.27564 27.7827 10.2022 26.4349 10.276 24.9723C10.3572 23.3494 9.39326 21.8729 7.63111 20.9201Z" fill="#FDFAEE"/>
<path d="M3.59313 10.4893C3.51328 10.322 3.15984 9.70097 2.56804 9.53331C1.96319 9.36233 1.40956 9.60614 1.14355 9.7999L3.59313 10.4893Z" fill="#FDFAEE"/>
<path d="M2.25783 10.7635C2.80971 10.9222 3.3943 10.6217 3.59313 10.4891L1.14355 9.79972C1.31959 10.0959 1.56924 10.5654 2.25783 10.7635Z" fill="#FDFAEE"/>
<path d="M4.06258 9.21191C4.09043 8.98914 4.10503 8.3027 3.70602 7.84877C3.28111 7.36583 2.70528 7.27021 2.37695 7.29825L4.06258 9.21191Z" fill="#FDFAEE"/>
<path d="M2.79849 8.72403C3.18854 9.14602 3.82338 9.22217 4.0627 9.21205L2.37708 7.29838C2.37416 7.64267 2.31223 8.19786 2.79849 8.72403Z" fill="#FDFAEE"/>
<path d="M5.8855 15.5115C5.63156 15.4182 4.68554 15.2459 4.08264 15.6694C3.463 16.1037 3.27508 16.8326 3.23535 17.2197L5.8855 15.5115Z" fill="#FDFAEE"/>
<path d="M5.03528 17.0452C5.66389 16.6368 5.87264 15.8238 5.8855 15.5113L3.23535 17.2195C3.70544 17.3554 4.4281 17.4391 5.03528 17.0452Z" fill="#FDFAEE"/>
<path d="M5.73209 14.644C5.57533 14.3987 4.74576 13.5222 3.82759 13.4421C2.94174 13.3658 2.14956 13.7455 1.80273 14.0355L5.73209 14.644Z" fill="#FDFAEE"/>
<path d="M3.60871 15.215C4.51266 15.378 5.42149 14.8974 5.73209 14.6441L1.80273 14.0355C2.1959 14.5245 2.7509 15.0602 3.60871 15.215Z" fill="#FDFAEE"/>
<path d="M12.4939 7.03076C12.3911 6.78871 11.8879 5.92155 11.0828 5.61562C10.1989 5.27951 9.36703 5.52079 8.98633 5.73967L12.4939 7.03076Z" fill="#FDFAEE"/>
<path d="M10.4198 7.15889C11.2149 7.48312 12.1447 7.20544 12.4939 7.03076L8.98633 5.73967C9.25993 6.25727 9.66576 6.85121 10.4198 7.15889Z" fill="#FDFAEE"/>
<path d="M7.90343 16.7617C7.92193 16.4788 7.89895 15.8552 7.49429 15.3896C7.05809 14.888 6.47447 14.7887 6.16309 14.7706L7.90343 16.7617Z" fill="#FDFAEE"/>
<path d="M6.60247 16.1768C7.00674 16.6441 7.64645 16.7869 7.90311 16.7619L6.16276 14.7708C6.13355 15.1141 6.21144 15.7254 6.60247 16.1768Z" fill="#FDFAEE"/>
<path d="M8.1067 14.2876C8.02121 14.0648 7.7221 13.4619 7.15601 13.2193C6.54571 12.957 5.98078 13.105 5.69141 13.2205L8.1067 14.2876Z" fill="#FDFAEE"/>
<path d="M6.61893 14.2769C7.23059 14.5805 7.88431 14.4196 8.1067 14.288L5.69141 13.2208C5.82422 13.5384 6.08594 14.0116 6.61893 14.2769Z" fill="#FDFAEE"/>
<path d="M5.63099 12.1392C5.48475 11.9546 5.00356 11.4323 4.34555 11.3838C3.63983 11.3316 3.14345 11.7483 2.91016 11.9783L5.63099 12.1392Z" fill="#FDFAEE"/>
<path d="M4.28012 12.7399C4.90366 12.7745 5.4645 12.3105 5.63099 12.1387L2.91016 11.9779C3.14462 12.2297 3.56544 12.6999 4.28012 12.7399Z" fill="#FDFAEE"/>
<path d="M14.1682 4.24805C14.3084 4.00969 14.6733 3.27282 14.4469 2.53692C14.203 1.74766 13.5425 1.38954 13.1904 1.23472L14.1682 4.24805Z" fill="#FDFAEE"/>
<mask id="mask0_0_1" style="mask-type:luminance" maskUnits="userSpaceOnUse" x="0" y="0" width="33" height="32">
<path d="M0 0.00012207H32.4584V31.8042H0V0.00012207Z" fill="white"/>
</mask>
<g mask="url(#mask0_0_1)">
<path d="M12.9598 3.04673C13.1875 3.73881 13.909 4.14055 14.168 4.24805L13.1902 1.23472C13.014 1.5979 12.6989 2.25299 12.9598 3.04673Z" fill="#FDFAEE"/>
<path d="M16.9566 2.83984C17.1161 2.63089 17.534 1.97425 17.3981 1.26113C17.2528 0.496406 16.6762 0.0783081 16.3594 -0.102406L16.9566 2.83984Z" fill="#FDFAEE"/>
<path d="M15.938 1.56238C16.1051 2.30997 16.7752 2.71288 16.9567 2.83984L16.3594 -0.102406C16.147 0.191644 15.7684 0.801361 15.938 1.56238Z" fill="#FDFAEE"/>
</g>
<path d="M17.2286 6.35938C17.4319 6.19872 17.9707 5.57752 17.9368 4.88427C17.9055 4.24086 17.3524 3.67866 17.0488 3.46873L17.2286 6.35938Z" fill="#FDFAEE"/>
<path d="M16.3776 4.99429C16.4436 5.72435 17.0584 6.21683 17.229 6.35938L17.0492 3.46873C16.7863 3.72228 16.31 4.2508 16.3776 4.99429Z" fill="#FDFAEE"/>
<path d="M18.2266 8.18701C18.4556 8.0838 19.0912 7.70894 19.2468 6.96077C19.3747 6.34326 18.9995 5.67551 18.7691 5.40308L18.2266 8.18701Z" fill="#FDFAEE"/>
<path d="M17.7712 6.6856C17.6579 7.34712 18.1032 8.01039 18.2263 8.18701L18.7688 5.40308C18.4627 5.57951 17.8951 5.96489 17.7712 6.6856Z" fill="#FDFAEE"/>
<path d="M20.9199 11.717C21.1768 11.7457 21.9378 11.7408 22.4593 11.1603C22.8895 10.6816 22.9015 9.88983 22.8353 9.52782L20.9199 11.717Z" fill="#FDFAEE"/>
<path d="M21.2816 10.1443C20.8493 10.6759 20.8999 11.496 20.9202 11.7168L22.8356 9.52759C22.5252 9.50013 21.7877 9.52156 21.2816 10.1443Z" fill="#FDFAEE"/>
<path d="M26.2881 10.1283C26.5514 10.1472 27.3139 10.0946 27.8779 9.52673C28.347 9.05333 28.4012 8.23544 28.3606 7.87071L26.2881 10.1283Z" fill="#FDFAEE"/>
<path d="M26.7295 8.51134C26.2389 9.06361 26.2715 9.89941 26.2876 10.1284L28.3602 7.87085C28.0395 7.83561 27.2187 7.96121 26.7295 8.51134Z" fill="#FDFAEE"/>
<path d="M21.7031 7.33691C21.9426 7.28083 22.6643 7.01287 22.9656 6.40043C23.2519 5.81895 23.1085 5.11343 22.9597 4.79387L21.7031 7.33691Z" fill="#FDFAEE"/>
<path d="M21.6779 5.78838C21.379 6.41309 21.6311 7.13692 21.7028 7.33691L22.9594 4.79387C22.6222 4.88306 21.9895 5.13777 21.6779 5.78838Z" fill="#FDFAEE"/>
<path d="M21.0898 4.62012C21.3354 4.58935 22.0931 4.3993 22.4688 3.81392C22.8249 3.25835 22.7488 2.54133 22.6625 2.1912L21.0898 4.62012Z" fill="#FDFAEE"/>
<path d="M21.2526 3.04588C20.8779 3.64391 21.0419 4.41097 21.0896 4.62012L22.6623 2.1912C22.3145 2.24572 21.6426 2.42293 21.2526 3.04588Z" fill="#FDFAEE"/>
<path d="M23.7539 5.90227C23.9595 5.94102 24.6166 5.98503 25.0631 5.61172C25.4861 5.2575 25.6 4.66103 25.6162 4.35744L23.7539 5.90227Z" fill="#FDFAEE"/>
<path d="M24.2707 4.67834C23.8226 5.06178 23.7668 5.72134 23.7539 5.90186L25.6162 4.35703C25.3231 4.3099 24.7383 4.27836 24.2707 4.67834Z" fill="#FDFAEE"/>
<path d="M26.2168 7.57129C26.4316 7.52338 27.0945 7.35143 27.3981 6.74288C27.6948 6.14816 27.548 5.58422 27.4465 5.28043L26.2168 7.57129Z" fill="#FDFAEE"/>
<path d="M26.242 6.14915C25.9538 6.71134 26.1384 7.34072 26.2152 7.57129L27.4449 5.28043C27.1417 5.35677 26.5425 5.56358 26.242 6.14915Z" fill="#FDFAEE"/>
<path d="M24.4277 10.731C24.6484 10.6786 25.328 10.4905 25.6306 9.85893C25.9258 9.2422 25.7659 8.66443 25.6563 8.35324L24.4277 10.731Z" fill="#FDFAEE"/>
<path d="M24.4328 9.26752C24.1454 9.85095 24.346 10.4951 24.4279 10.731L25.6565 8.35324C25.3455 8.43678 24.7323 8.65937 24.4328 9.26752Z" fill="#FDFAEE"/>
<path d="M28.3672 9.57511C28.5572 9.63976 29.1545 9.81774 29.6809 9.48708C30.1952 9.16402 30.3498 8.65653 30.416 8.37203L28.3672 9.57511Z" fill="#FDFAEE"/>
<path d="M29.0663 8.48244C28.5738 8.78408 28.418 9.36031 28.3672 9.57568L30.416 8.3726C30.1436 8.28945 29.579 8.16814 29.0663 8.48244Z" fill="#FDFAEE"/>
<path d="M27.4307 11.6489C27.6032 11.7646 28.1473 12.0849 28.7689 11.9163C29.3889 11.7484 29.6253 11.2725 29.8058 10.9999L27.4307 11.6489Z" fill="#FDFAEE"/>
<path d="M28.4254 10.7447C27.8511 10.9131 27.5395 11.4477 27.4307 11.6494L29.8058 11.0004C29.5556 10.843 29.0234 10.5686 28.4254 10.7447Z" fill="#FDFAEE"/>
<path d="M29.5049 12.1092C29.671 12.2954 30.2137 12.8225 30.9806 12.8134C31.7654 12.8042 32.1948 12.3627 32.4489 12.0473L29.5049 12.1092Z" fill="#FDFAEE"/>
<path d="M30.9192 11.3366C30.2075 11.3669 29.6885 11.9034 29.5049 12.1089L32.4489 12.047C32.2049 11.7897 31.6606 11.3054 30.9192 11.3366Z" fill="#FDFAEE"/>
<path d="M27.2929 12.0234C27.2779 12.2306 27.2855 12.8844 27.7429 13.3385C28.191 13.7836 28.7567 13.7624 29.0601 13.7661L27.2929 12.0234Z" fill="#FDFAEE"/>
<path d="M28.5957 12.4413C28.165 12.0258 27.5212 12.018 27.292 12.0234L29.0592 13.7661C29.0719 13.4713 29.0448 12.874 28.5957 12.4413Z" fill="#FDFAEE"/>
<path d="M22.8271 14.2241C23.0277 14.1612 23.6372 13.917 23.8768 13.3147C24.1108 12.7264 23.9192 12.2195 23.7987 11.9389L22.8271 14.2241Z" fill="#FDFAEE"/>
<path d="M22.7327 12.8439C22.5037 13.4006 22.7359 14.0109 22.8268 14.2241L23.7983 11.9389C23.5164 12.0359 22.9713 12.2632 22.7327 12.8439Z" fill="#FDFAEE"/>
<path d="M25.9737 15.125C26.0545 14.9151 26.1302 14.2236 25.8033 13.7502C25.4621 13.255 24.9007 13.1113 24.6035 13.0593L25.9737 15.125Z" fill="#FDFAEE"/>
<path d="M24.8113 14.4876C25.1353 14.9375 25.7489 15.0851 25.974 15.125L24.6039 13.0593C24.5221 13.3307 24.4428 13.9765 24.8113 14.4876Z" fill="#FDFAEE"/>
<path d="M23.4326 4.66895C23.6718 4.62065 24.3745 4.3821 24.7085 3.7794C25.0238 3.21058 24.8875 2.50466 24.7773 2.16738L23.4326 4.66895Z" fill="#FDFAEE"/>
<path d="M23.4689 3.11184C23.1437 3.72662 23.3573 4.45006 23.4325 4.66895L24.7771 2.16738C24.4391 2.24527 23.8074 2.47097 23.4689 3.11184Z" fill="#FDFAEE"/>
<path d="M11.7357 2.59521C11.8578 2.35842 12.0504 1.78434 11.8537 1.26089C11.6311 0.668511 11.0825 0.402111 10.791 0.302018L11.7357 2.59521Z" fill="#FDFAEE"/>
<path d="M10.7205 1.73955C10.9425 2.23496 11.5122 2.50934 11.7362 2.59521L10.7915 0.302018C10.6622 0.609114 10.4439 1.12205 10.7205 1.73955Z" fill="#FDFAEE"/>
<path d="M15.6829 5.02979C15.8753 4.82746 16.2299 4.31102 16.1824 3.73052C16.129 3.07367 15.6463 2.65071 15.3789 2.46688L15.6829 5.02979Z" fill="#FDFAEE"/>
<path d="M14.8913 3.88825C14.9723 4.44733 15.4802 4.88042 15.6827 5.02979L15.3787 2.46688C15.1583 2.73775 14.79 3.19032 14.8913 3.88825Z" fill="#FDFAEE"/>
<path d="M18.4355 4.29883C18.6575 4.1557 19.099 3.7528 19.1888 3.20481C19.291 2.58439 18.9496 2.07457 18.7485 1.84342L18.4355 4.29883Z" fill="#FDFAEE"/>
<path d="M17.9772 3.05448C17.9225 3.59078 18.2855 4.11422 18.4353 4.29883L18.7482 1.84342C18.4847 2.0436 18.045 2.38479 17.9772 3.05448Z" fill="#FDFAEE"/>
<path d="M19.4434 5.43506C19.6443 5.35366 20.0677 5.0894 20.2291 4.66332C20.4225 4.15312 20.2063 3.6875 20.0796 3.46979L19.4434 5.43506Z" fill="#FDFAEE"/>
<path d="M19.2605 4.36479C19.141 4.79067 19.3505 5.2633 19.443 5.43506L20.0792 3.46979C19.8358 3.59091 19.4167 3.80473 19.2605 4.36479Z" fill="#FDFAEE"/>
<path d="M20.0801 8.13428C20.3029 8.04606 20.7774 7.77012 20.9548 7.30315C21.1669 6.74465 20.9375 6.22763 20.7951 5.98869L20.0801 8.13428Z" fill="#FDFAEE"/>
<path d="M19.8779 6.97073C19.7475 7.4379 19.9771 7.94519 20.0803 8.13428L20.7953 5.98869C20.5262 6.12013 20.0489 6.35732 19.8779 6.97073Z" fill="#FDFAEE"/>
<path d="M11.9801 5.3999C12.0672 4.7713 11.9237 4.19021 11.5751 3.7725C11.136 3.24614 10.3646 3.08762 10.0273 3.11333L11.9801 5.3999Z" fill="#FDFAEE"/>
<path d="M10.4323 4.72339C10.7961 5.12591 11.2358 5.35394 11.9814 5.3999L10.0286 3.11333C9.9881 3.44048 9.97837 4.22156 10.4323 4.72339Z" fill="#FDFAEE"/>
<path d="M13.9013 10.3145C14.1614 9.76569 14.2423 9.15617 14.0364 8.67809C13.7283 7.964 13.0643 7.69975 12.749 7.62633L13.9013 10.3145Z" fill="#FDFAEE"/>
<path d="M12.6484 9.22004C12.8646 9.69189 13.2334 10.0576 13.9012 10.3145L12.7489 7.62633C12.6178 7.91298 12.3785 8.63097 12.6484 9.22004Z" fill="#FDFAEE"/>
<path d="M20.085 2.93701C20.586 2.73488 20.9965 2.41434 21.1692 1.96353C21.384 1.40444 21.1402 0.701846 20.9708 0.44908L20.085 2.93701Z" fill="#FDFAEE"/>
<path d="M19.8739 1.43405C19.7002 1.88758 19.7874 2.33781 20.084 2.93701L20.9698 0.44908C20.6612 0.544111 20.0877 0.87243 19.8739 1.43405Z" fill="#FDFAEE"/>
<path d="M15.7198 8.60205C16.0474 8.07023 16.2559 7.44221 16.1264 6.94018C15.9095 6.10088 15.1973 5.74236 14.8926 5.61384L15.7198 8.60205Z" fill="#FDFAEE"/>
<path d="M14.516 7.38029C14.6729 7.90899 15.1187 8.33273 15.7204 8.60205L14.8932 5.61384C14.6289 5.99318 14.3201 6.72014 14.516 7.38029Z" fill="#FDFAEE"/>
<path d="M21.9453 8.85073C22.6012 9.10642 23.3682 9.13485 23.9184 8.8813C24.8021 8.47353 25.0823 7.57599 25.2104 7.22625L21.9453 8.85073Z" fill="#FDFAEE"/>
<path d="M23.1196 7.2558C22.5482 7.55511 22.1585 8.15918 21.9453 8.85107L25.2104 7.22659C24.73 7.03731 23.8841 6.85523 23.1196 7.2558Z" fill="#FDFAEE"/>
<path d="M24.252 12.6887C24.9107 12.8698 25.6794 12.8259 26.1925 12.5391C27.0154 12.0782 27.2207 11.2303 27.3136 10.8755L24.252 12.6887Z" fill="#FDFAEE"/>
<path d="M25.2513 11.0892C24.7203 11.4199 24.3976 11.9905 24.252 12.689L27.3136 10.8758C26.8226 10.7432 25.938 10.6616 25.2513 11.0892Z" fill="#FDFAEE"/>
<path d="M28.7376 16.291C28.9179 15.5761 28.8159 14.8763 28.5099 14.421C28.0291 13.7055 27.1999 13.5149 26.8516 13.4506L28.7376 16.291Z" fill="#FDFAEE"/>
<path d="M27.1395 15.4274C27.4766 15.8922 28.0626 16.1576 28.7369 16.291L26.8509 13.4506C26.7033 13.9443 26.6613 14.7666 27.1395 15.4274Z" fill="#FDFAEE"/>
<path d="M13.5311 6.77588C13.8145 6.26217 13.9025 5.65888 13.7286 5.19229C13.4801 4.52591 12.8763 4.19272 12.5742 4.08348L13.5311 6.77588Z" fill="#FDFAEE"/>
<path d="M12.3743 5.63513C12.5597 6.14105 12.8858 6.47949 13.5322 6.77588L12.5752 4.08348C12.4272 4.3602 12.1527 5.03009 12.3743 5.63513Z" fill="#FDFAEE"/>
<path d="M6.41491 8.52441C6.43535 8.30397 6.45638 7.61072 6.0488 7.19068C5.61552 6.74356 5.04553 6.68573 4.72363 6.73441L6.41491 8.52441Z" fill="#FDFAEE"/>
<path d="M5.1857 8.11033C5.58335 8.49883 6.18002 8.55043 6.41467 8.52473L4.7234 6.73472C4.70256 7.01417 4.68971 7.62467 5.1857 8.11033Z" fill="#FDFAEE"/>
<path d="M9.20401 7.1377C9.12943 6.9194 8.95222 6.30326 8.29616 5.96111C7.75538 5.67894 7.03856 5.82557 6.73828 5.98116L9.20401 7.1377Z" fill="#FDFAEE"/>
<path d="M7.7548 7.2091C8.28973 7.44258 8.98065 7.24123 9.20401 7.13763L6.73828 5.98109C6.83837 6.25586 7.08549 6.9166 7.7548 7.2091Z" fill="#FDFAEE"/>
<path d="M9.65056 4.77051C9.63498 4.49905 9.57052 3.78125 8.9094 3.14681C8.41458 2.67126 7.73242 2.68042 7.40137 2.7476L9.65056 4.77051Z" fill="#FDFAEE"/>
<path d="M8.06327 4.25446C8.51233 4.65425 9.12166 4.80848 9.65056 4.77089L7.40137 2.74799C7.42259 3.0397 7.49173 3.74542 8.06327 4.25446Z" fill="#FDFAEE"/>
<path d="M9.72718 8.79102C9.61774 8.58732 9.25826 7.93711 8.63511 7.77178C7.97242 7.59555 7.37596 7.84889 7.10547 8.05161L9.72718 8.79102Z" fill="#FDFAEE"/>
<path d="M8.32354 9.09529C8.91884 9.23842 9.52349 8.93015 9.72718 8.7915L7.10547 8.05209C7.2486 8.30642 7.57984 8.91613 8.32354 9.09529Z" fill="#FDFAEE"/>
<path d="M12.2121 9.82715C12.1802 9.61859 11.9726 8.94227 11.5343 8.66185C11.0519 8.35417 10.4488 8.46341 10.1787 8.57539L12.2121 9.82715Z" fill="#FDFAEE"/>
<path d="M10.943 9.79426C11.4063 10.0523 12.0075 9.91695 12.2121 9.82757L10.1787 8.5758C10.2441 8.81981 10.3834 9.4821 10.943 9.79426Z" fill="#FDFAEE"/>
<path d="M7.00752 12.0903C7.10781 11.7484 7.15435 10.8285 6.8013 10.2047C6.25078 9.23299 5.32268 8.98314 5 8.92745L7.00752 12.0903Z" fill="#FDFAEE"/>
<path d="M5.29828 10.9529C5.75104 11.7081 6.70641 12.0603 7.00611 12.0903L4.99859 8.92745C4.90881 9.32081 4.83111 10.1732 5.29828 10.9529Z" fill="#FDFAEE"/>
<path d="M11.1137 11.708C11.0685 11.3526 10.7433 10.4537 10.164 10.013C9.26256 9.32639 8.28694 9.46116 7.96582 9.53555L11.1137 11.708Z" fill="#FDFAEE"/>
<path d="M9.0353 11.3235C9.78055 11.862 10.8481 11.7956 11.1137 11.7078L7.96582 9.53529C8.01665 9.92418 8.31556 10.8034 9.0353 11.3235Z" fill="#FDFAEE"/>
<path d="M18.1318 14.3198C17.8786 14.926 17.9222 15.4524 18.2371 15.4785C18.551 15.5044 18.9993 15.0222 19.2342 14.4186C19.4608 13.8344 19.4032 13.3514 19.108 13.323C18.8131 13.2947 18.3791 13.7337 18.1318 14.3198Z" fill="#FDFAEE"/>
<path d="M16.6639 9.93267C16.3698 10.4168 16.328 10.8695 16.5778 10.9287C16.8269 10.9897 17.2607 10.6341 17.5386 10.1502C17.8085 9.68088 17.8301 9.26259 17.5967 9.203C17.3624 9.14361 16.9484 9.46453 16.6639 9.93267Z" fill="#FDFAEE"/>
<path d="M13.8164 14.4649C14.1445 14.3436 14.0146 13.8233 13.5375 13.316C13.0751 12.8255 12.4607 12.5335 12.1536 12.6508C11.8461 12.767 11.9454 13.2509 12.3867 13.7462C12.8427 14.2566 13.4883 14.5851 13.8164 14.4649Z" fill="#FDFAEE"/>
<path d="M14.8282 13.7488C13.6795 12.1369 13.4228 11.5823 11.9195 10.306C12.2638 10.9419 17.7561 18.2393 12.6363 14.4247C12.6363 14.4247 9.6917 12.385 5.84082 12.5973C5.84082 12.5973 13.3395 13.391 14.6572 18.4427C14.6693 18.4886 14.6872 18.7495 14.681 18.8323C14.6298 19.5114 14.3949 20.081 14.194 20.4568C14.0292 20.7651 13.718 21.1512 13.6226 21.2517C13.1494 21.7496 12.3148 21.9399 11.9966 22.0894C12.3598 22.3482 13.588 22.1294 14.1396 22.0906L16.1855 22.1769C16.2412 22.1736 16.4443 22.187 16.5469 22.187L16.8706 21.2653C16.8706 21.2653 17.7831 21.0788 18.1336 21.0176C18.4836 20.9559 18.876 20.914 18.876 20.914L18.2906 22.2205C18.9361 22.3068 20.8827 22.5225 21.2403 22.3011C20.8342 22.1346 19.6569 22.008 19.1766 21.3228C19.1087 21.254 18.6273 19.592 18.6439 19.0047C18.6442 18.9838 18.6464 18.9301 18.6483 18.9217C19.555 12.8721 25.7371 10.6844 25.7371 10.6844C21.7351 11.5915 19.577 14.7333 19.577 14.7333C15.5184 19.8075 18.3336 12.3432 19.1716 11.462C17.6601 12.6314 17.106 14.361 17.106 14.361C17.5674 9.45252 21.7123 8.98341 21.7123 8.98341C19.577 8.92401 17.9335 10.709 17.9335 10.709C14.4275 14.4946 15.7368 9.07162 17.2266 8.29814C17.0932 8.36902 14.318 9.54502 14.8282 13.7488Z" fill="#FDFAEE"/>
</svg>
