<svg width="62" height="18" viewBox="0 0 62 18" fill="none" xmlns="http://www.w3.org/2000/svg">
<path d="M12.2591 12.2057C12.2751 12.326 12.2633 12.4484 12.2246 12.5634C12.186 12.6785 12.1214 12.7831 12.0359 12.8693C11.9505 12.9554 11.8464 13.0208 11.7316 13.0604C11.6169 13.1 11.4947 13.1127 11.3742 13.0977C10.9 13.0671 10.4306 12.984 9.97463 12.8499V4.51691C10.4306 4.38275 10.9 4.29969 11.3742 4.26917C11.4947 4.25419 11.617 4.26704 11.7317 4.30671C11.8464 4.34639 11.9505 4.41178 12.0359 4.49798C12.1214 4.58417 12.1859 4.68883 12.2246 4.80387C12.2633 4.91892 12.2751 5.04132 12.2591 5.16164V12.2057ZM11.6939 2.0894C10.4015 2.18806 9.12871 2.46348 7.91113 2.90792V14.4611C9.13347 14.8889 10.404 15.1638 11.6939 15.2796C13.4131 15.2796 14.3714 14.2133 14.3714 12.5023V4.84041C14.3714 3.15518 13.4131 2.0894 11.6939 2.0894Z" fill="#FDFAEE"/>
<path d="M37.3171 13.941C37.3171 14.6099 37.0978 14.9575 36.2848 14.9827C35.4252 15.0084 35.1796 14.6362 35.1796 13.941V3.42834C35.1796 2.73374 35.4252 2.3374 36.2848 2.36207C37.0956 2.38674 37.3171 2.75841 37.3171 3.42834V13.941ZM36.2848 0.0069059C34.0985 -0.0923221 32.7959 0.874715 32.7959 3.10597V14.1389C32.7959 16.4963 33.9751 17.4622 36.2848 17.3625C38.5199 17.2632 39.6996 16.3954 39.6996 13.8906V3.35325C39.6996 0.973422 38.6432 0.130271 36.2848 0.00911431" fill="#FDFAEE"/>
<path d="M61.6632 8.65999C61.6632 10.2465 60.1156 11.7344 57.4375 13.0238V4.3208C60.115 5.585 61.6632 7.07289 61.6632 8.65999Z" fill="#FDFAEE"/>
<path d="M0 8.65999C0 10.2465 1.54818 11.7344 4.22569 13.0238V4.3208C1.54818 5.585 0 7.07289 0 8.65999Z" fill="#FDFAEE"/>
<path d="M20.3658 13.5694C20.3658 14.2382 20.1465 14.6604 19.3094 14.5612C18.5238 14.4619 18.3023 14.1143 18.3023 13.3216V0.775609C17.7623 0.825498 16.5584 0.998718 16.042 1.07328V13.7679C16.042 15.776 17.0244 16.5698 19.3094 16.8423C21.4228 17.0901 22.7243 15.9991 22.7243 13.7679V0.354004C22.2824 0.378674 20.8329 0.502538 20.3669 0.552426L20.3658 13.5694Z" fill="#FDFAEE"/>
<path d="M46.234 9.43014L43.6026 0.826912C42.8899 0.752354 42.0555 0.653111 41.3916 0.579102V16.7939C41.8587 16.7445 43.0363 16.6206 43.6519 16.5197L43.4551 6.97412L46.2313 16.1481C46.8212 16.0488 47.6567 15.9249 48.2208 15.801V1.56867C47.6561 1.44477 46.5761 1.2463 46.0597 1.17229L46.234 9.43014Z" fill="#FDFAEE"/>
<path d="M28.9393 8.04037C28.9393 8.78431 28.669 9.15602 27.7332 9.15602H26.8977V2.48582C27.2672 2.46115 27.4629 2.46113 27.6844 2.46113C28.7167 2.46113 28.9371 2.85752 28.9371 3.602L28.9393 8.04037ZM27.8094 0.105957C27.4163 0.105957 25.9175 0.155338 24.542 0.229896V17.1392C25.0091 17.1392 26.2371 17.2137 26.8993 17.2384V11.4865H27.8105C30.2912 11.4865 31.3235 10.3709 31.3235 8.21363V3.25548C31.3235 1.14812 30.1443 0.106492 27.8105 0.106492" fill="#FDFAEE"/>
<path d="M49.3789 4.04808C49.9688 4.14731 50.534 4.27117 51.0987 4.39507V15.1803C51.6146 15.0564 52.5723 14.8086 53.2121 14.6096V4.91538C53.8261 5.06395 54.3907 5.21362 54.9313 5.38631V3.30304C53.1159 2.67692 51.2611 2.17179 49.3789 1.79102V4.04808Z" fill="#FDFAEE"/>
<path d="M60.4082 13.8921H60.6538L61.0474 14.4869L61.4158 13.8921H61.6614V15.1574H61.4158V14.2643L61.0474 14.8597H61.0222L60.6291 14.2643V15.1574H60.4099L60.4082 13.8921ZM59.5239 14.1152H59.1309V13.8921H60.1379V14.1152H59.7449V15.1568H59.5256L59.5239 14.1152Z" fill="#FDFAEE"/>
</svg>
