<svg width="24" height="24" viewBox="0 0 24 24" fill="none" xmlns="http://www.w3.org/2000/svg">
<g clip-path="url(#clip0_648_476)">
<mask id="mask0_648_476" style="mask-type:luminance" maskUnits="userSpaceOnUse" x="0" y="0" width="24" height="24">
<path d="M24 0H0V24H24V0Z" fill="white"/>
</mask>
<g mask="url(#mask0_648_476)">
<path d="M6.94141 5.001C6.94114 5.53143 6.73017 6.04004 6.35491 6.41492C5.97965 6.78981 5.47084 7.00027 4.94041 7C4.40997 6.99974 3.90137 6.78877 3.52649 6.41351C3.1516 6.03825 2.94114 5.52943 2.94141 4.999C2.94167 4.46857 3.15264 3.95996 3.5279 3.58508C3.90316 3.21019 4.41197 2.99974 4.94241 3C5.47284 3.00027 5.98144 3.21123 6.35633 3.58649C6.73121 3.96175 6.94167 4.47057 6.94141 5.001ZM7.00141 8.481H3.00141V21.001H7.00141V8.481ZM13.3214 8.481H9.34141V21.001H13.2814V14.431C13.2814 10.771 18.0514 10.431 18.0514 14.431V21.001H22.0014V13.071C22.0014 6.901 14.9414 7.131 13.2814 10.161L13.3214 8.481Z" fill="white"/>
</g>
</g>
<defs>
<clipPath id="clip0_648_476">
<rect width="24" height="24" fill="white"/>
</clipPath>
</defs>
</svg>
