<svg width="364" height="97" viewBox="0 0 364 97" fill="none" xmlns="http://www.w3.org/2000/svg">
<path d="M97.7461 24.3799C110.291 24.38 121.303 32.9264 121.303 49.8389V96.2578H87.9082V55.0557C87.9081 50.5579 85.7417 47.9492 82.4023 47.9492C79.0632 47.9494 76.717 50.5581 76.7168 55.0557V96.2578H44.4951V55.0557C44.495 50.5579 42.1489 47.9492 38.8096 47.9492C35.4703 47.9492 33.3039 50.5579 33.3037 55.0557V96.2578H0V26.8086H32.2207V38.7734C35.9211 31.7566 44.2246 24.3801 55.416 24.3799C64.3512 24.3799 71.8426 29.4176 75.0918 38.7734C78.9728 31.1268 86.6448 24.3799 97.7461 24.3799ZM316.162 38.0527C319.502 31.0361 328.256 24.2892 339.628 24.2891C352.986 24.2891 363.185 32.6556 363.185 49.748V96.167H329.43V54.7861C329.43 50.3781 326.993 47.7686 323.473 47.7686C319.953 47.7686 317.696 50.558 317.696 54.7861V96.167H283.941V0H316.162V38.0527ZM154.695 65.3994C154.425 66.6589 154.244 67.739 154.244 68.7285C154.244 73.1362 156.32 75.2948 160.291 75.2949C165.977 75.2949 169.678 69.8976 171.303 62.251L179.335 24.7373H207.494L193.144 96.166H165.978L167.782 84.3809C162.818 90.4081 153.883 96.1659 143.233 96.166C132.583 96.166 124.46 89.5985 124.46 76.8242C124.46 74.6653 124.731 72.3265 125.272 69.7178L134.749 24.8271L134.84 24.7373H163.36L154.695 65.3994ZM242.788 21.8594C255.063 21.8594 263.908 23.7489 269.413 27.6172C274.919 31.3055 278.258 35.9839 279.16 41.6514L248.835 45.5195C248.113 41.2914 245.495 39.042 240.982 39.042C237.282 39.0421 235.568 40.6613 235.567 43C235.567 45.6088 237.734 46.5984 243.871 47.498L254.25 49.1172C272.03 51.906 281.146 59.823 281.146 72.0576C281.146 86.3612 268.601 96.0771 242.156 96.0771C228.799 96.0771 219.141 93.918 213.455 89.3301C207.769 84.8321 204.519 79.4344 203.707 73.4072L234.214 71.0684L234.033 71.1582C234.304 75.8359 237.102 78.1748 242.337 78.1748C247.12 78.1747 249.467 76.6452 249.467 73.7666C249.467 70.888 247.301 69.8089 242.337 68.8193L234.665 67.4697C215.26 63.7814 207.047 58.9232 207.047 45.0693C207.047 32.385 218.871 21.8594 242.788 21.8594Z" fill="#0D0D0D"/>
</svg>
