<svg width="118" height="32" viewBox="0 0 118 32" fill="none" xmlns="http://www.w3.org/2000/svg">
<path fill-rule="evenodd" clip-rule="evenodd" d="M31.7578 7.9209C35.8339 7.9209 39.4121 10.6974 39.4121 16.1924V31.2744H28.5615V17.8877C28.5615 16.4263 27.8575 15.5781 26.7725 15.5781C25.6877 15.5784 24.9258 16.4265 24.9258 17.8877V31.2744H14.457V17.8877C14.457 16.4263 13.6944 15.5781 12.6094 15.5781C11.5244 15.5781 10.8203 16.4263 10.8203 17.8877V31.2744H0V8.70996H10.4688V12.5967C11.6711 10.317 14.3689 7.92096 18.0049 7.9209C20.9078 7.9209 23.3417 9.55722 24.3975 12.5967C25.6584 10.1124 28.1512 7.92099 31.7578 7.9209ZM50.2617 21.249C50.1738 21.6581 50.1153 22.0087 50.1152 22.3301C50.1152 23.7621 50.7891 24.4637 52.0791 24.4639C53.9265 24.4639 55.1294 22.71 55.6572 20.2256L58.2666 8.03711H67.416L62.7539 31.2451H53.9268L54.5137 27.416C52.9008 29.3743 49.9974 31.2451 46.5371 31.2451C43.077 31.245 40.4376 29.1112 40.4375 24.9609C40.4375 24.2595 40.5262 23.499 40.7021 22.6514L43.7812 8.06641L43.8105 8.03711H53.0762L50.2617 21.249ZM102.722 12.3633C103.807 10.0835 106.652 7.8916 110.347 7.8916C114.687 7.8917 118 10.6098 118 16.1631V31.2451H107.033V17.7998C107.033 16.3677 106.241 15.5196 105.098 15.5195C103.954 15.5195 103.221 16.4261 103.221 17.7998V31.2451H92.2539V0H102.722V12.3633ZM78.8818 7.10254C82.8698 7.10254 85.7435 7.71591 87.5322 8.97266C89.321 10.171 90.4059 11.6909 90.6992 13.5322L80.8467 14.7891C80.6121 13.4154 79.7611 12.6846 78.2949 12.6846C77.0929 12.6847 76.5362 13.2109 76.5361 13.9707C76.5361 14.8183 77.2395 15.1403 79.2334 15.4326L82.6064 15.958C88.3828 16.8641 91.3445 19.4364 91.3447 23.4111C91.3447 28.0584 87.2686 31.2158 78.6768 31.2158C74.3369 31.2158 71.199 30.514 69.3516 29.0234C67.5041 27.562 66.4485 25.8079 66.1846 23.8496L76.0957 23.0898L76.0371 23.1191C76.1251 24.639 77.0346 25.3994 78.7354 25.3994C80.2894 25.3994 81.0518 24.9021 81.0518 23.9668C81.0517 23.0316 80.348 22.6809 78.7354 22.3594L76.2422 21.9209C69.9378 20.7225 67.2695 19.1437 67.2695 14.6426C67.2698 10.5216 71.1112 7.10254 78.8818 7.10254Z" fill="black"/>
</svg>
