<svg width="100" height="17" viewBox="0 0 100 17" fill="none" xmlns="http://www.w3.org/2000/svg">
<path fill-rule="evenodd" clip-rule="evenodd" d="M98.3578 4.05852H98.5432C98.6756 4.05852 98.7551 4.05852 98.7904 4.04091C98.8169 4.04091 98.8434 4.0145 98.861 3.98809C98.8787 3.97048 98.8875 3.93527 98.8875 3.89125C98.8875 3.84723 98.8787 3.81201 98.8522 3.7856C98.8257 3.75039 98.7904 3.74158 98.7462 3.73278C98.7286 3.73278 98.658 3.73278 98.5608 3.73278H98.3489V4.05852H98.3578ZM44.4464 1.35577L40.9147 5.10616V5.50233H41.8241L41.8065 11.0575C41.8065 11.4801 41.7447 11.8146 41.621 12.0699C41.5063 12.3164 41.2944 12.5189 41.0207 12.6862C41.621 12.8446 42.1949 13.0559 42.76 13.3376C43.3251 13.6194 43.8813 13.9979 44.4287 14.4469C44.9144 14.0508 45.3558 13.725 45.7355 13.4257C46.124 13.1088 46.486 12.8358 46.8303 12.5893L46.4418 12.2548L45.7178 12.7302L44.4023 11.8234L44.4287 5.49353H47.0775L47.0863 4.35785H44.4287V1.35577H44.4464ZM34.8843 8.80373L34.8225 8.77732L33.4363 8.12584V5.65199C33.8513 5.83687 34.2575 5.96893 34.6724 6.04816C34.7342 6.06577 34.7784 6.07457 34.8402 6.09218C35.1845 6.15381 35.5377 6.18022 35.8997 6.18022C36.0675 6.18022 36.2705 6.18022 36.5177 6.16261C36.765 6.1362 37.0298 6.10979 37.3212 6.06577L34.8932 8.80373H34.8843ZM37.0122 9.73692V12.5717C36.5531 12.3604 36.1204 12.202 35.679 12.0699C35.3964 11.9907 35.1051 11.9379 34.8225 11.9202C34.6901 11.9026 34.54 11.9026 34.3987 11.9026C34.1162 11.9026 33.8337 11.9114 33.5335 11.9643C33.2333 11.9995 32.9419 12.0699 32.6417 12.158L34.8225 9.79855L35.52 9.05023L37.0034 9.73692H37.0122ZM39.0871 2.50906C38.9016 2.50906 38.7515 2.56189 38.6191 2.65873C38.4867 2.76437 38.416 2.87882 38.416 3.01968C38.416 3.13413 38.5396 3.3014 38.7515 3.51269C38.9811 3.72398 39.0871 3.90005 39.0871 4.0145C39.0871 4.2434 38.9546 4.43708 38.6986 4.56914C38.4425 4.70119 38.107 4.77162 37.6744 4.77162C37.2064 4.77162 36.6767 4.69239 36.0851 4.54272C35.679 4.44588 35.2728 4.30502 34.8402 4.12895C34.6548 4.04972 34.4429 3.96168 34.2398 3.87364C33.7807 4.2522 33.2686 4.59555 32.7388 4.90368C32.1914 5.203 31.6175 5.4407 30.9995 5.65199L30.9818 9.11186L33.5246 10.274L30.2843 13.9803L30.7787 14.2532C31.2467 14.0596 31.6793 13.9187 32.1031 13.8219C32.5269 13.7338 32.9596 13.6722 33.3657 13.6722C33.8337 13.6722 34.2663 13.7426 34.6901 13.8659C34.7254 13.8659 34.7696 13.8835 34.8049 13.8923C35.1934 14.0155 35.5818 14.1916 35.9615 14.3941C36.5001 14.0067 37.0563 13.6722 37.6037 13.4169C38.1688 13.1616 38.6986 12.9503 39.2548 12.8094V8.7245L36.8709 7.48317L39.2018 4.83325C39.4844 4.52512 39.6963 4.2522 39.8199 4.0145C39.9435 3.79441 39.9965 3.56551 39.9965 3.36302C39.9965 3.09891 39.917 2.88762 39.7492 2.73796C39.5815 2.57949 39.3519 2.50026 39.0782 2.50026M54.397 12.6598C53.9643 12.5365 53.5229 12.3956 53.0549 12.246L52.9843 12.2196C52.5428 12.0787 52.0572 11.9114 51.5716 11.7442L51.5893 5.73123C52.0749 5.93371 52.5605 6.10979 53.0019 6.25945L53.0726 6.28586C53.5405 6.44433 53.982 6.59399 54.4234 6.71725L54.397 12.6598ZM53.0108 4.07613C52.9401 4.04091 52.8695 3.99689 52.8077 3.94407C52.2779 4.40186 51.7129 4.76282 51.1037 5.04454C50.4944 5.34386 49.8146 5.56396 49.0464 5.70482L49.02 10.9782C49.02 11.4625 48.9581 11.8234 48.8522 12.0699C48.7462 12.3164 48.5343 12.5277 48.2518 12.7038C49.1171 12.8534 49.947 13.0911 50.7681 13.3817C51.5716 13.681 52.2956 14.0419 52.9843 14.4645L53.0196 14.4909C53.5229 14.1212 54.0879 13.8042 54.7413 13.5225C55.3858 13.232 56.1098 13.0031 56.9045 12.8182L56.931 5.54635C56.3747 5.49353 55.7478 5.31745 55.0503 5.05334C54.4146 4.80684 53.7348 4.4811 53.0196 4.06732M78.1653 3.25738H78.3772L80.4344 0.862765H78.7922L78.1741 3.25738H78.1653ZM77.9181 4.04091L75.2075 5.78405L75.5518 6.09218L76.3553 5.65199L77.1676 6.34749C76.9115 6.8493 76.7173 7.3247 76.5848 7.82652C76.4612 8.31072 76.3906 8.81253 76.3906 9.34076C76.3906 9.93061 76.4965 10.7229 76.7085 11.7442C76.9292 12.783 77.0351 13.5313 77.0351 13.9715C77.0351 14.5614 76.9027 15.0544 76.6555 15.4858C76.4083 15.9171 76.0198 16.3045 75.4812 16.6743L75.7902 17C76.9733 16.551 77.8474 15.9876 78.4213 15.3273C78.9864 14.6758 79.2689 13.8747 79.2778 12.9327C79.2778 12.651 79.2336 12.1491 79.1277 11.4184C79.0217 10.6877 78.9776 10.0891 78.9776 9.64008C78.9776 8.92698 79.0923 8.28431 79.3219 7.70326C79.5338 7.10461 79.887 6.52356 80.3726 5.95132C79.9929 5.73123 79.6044 5.46712 79.2248 5.16779C78.8363 4.87727 78.3948 4.49871 77.9004 4.04972M93.537 5.67841L94.7554 6.71725L95.9827 7.75609L94.7554 8.54842L93.537 9.33195V5.6696V5.67841ZM95.709 12.9151L94.7289 12.5629L93.6429 12.1491V9.93941C94.0403 9.6841 94.4023 9.4376 94.7466 9.2087C95.2057 8.91818 95.6383 8.64526 96.0445 8.38115C96.7685 7.92336 97.4748 7.50078 98.1723 7.087L94.7554 4.13775V4.11134C94.0314 4.55153 93.3781 4.90368 92.7865 5.1942C92.1949 5.47592 91.6475 5.71362 91.1266 5.87209L91.1089 11.7354C91.1089 12.1579 91.0383 12.4925 90.9324 12.739C90.8176 12.9855 90.6057 13.188 90.3408 13.3553C91.0383 13.4609 91.6917 13.6194 92.3186 13.8307C92.9278 14.0419 93.5017 14.3061 94.0403 14.623C94.2698 14.4733 94.4994 14.3149 94.7289 14.174C95.1616 13.8923 95.5854 13.637 96.0004 13.3905C96.6184 13.0207 97.2188 12.6686 97.8015 12.3516L97.4219 11.9819L95.709 12.9151ZM85.0433 9.31435V5.65199L86.2705 6.69083L87.489 7.72967L86.2705 8.52201L85.0433 9.31435ZM86.2705 9.17349C86.7208 8.88296 87.1534 8.61005 87.5596 8.35474C88.2924 7.89694 88.9899 7.45676 89.6874 7.05179L86.2705 4.10254V4.07613C85.5377 4.52512 84.8932 4.87727 84.3016 5.16779C83.71 5.4407 83.1626 5.67841 82.6329 5.83687L82.6152 11.709C82.6152 12.1315 82.5622 12.4661 82.4386 12.7126C82.3239 12.9591 82.1208 13.1616 81.8471 13.3288C82.5446 13.4345 83.2068 13.593 83.816 13.8131C84.434 14.0243 85.0168 14.2885 85.5554 14.5966C85.7849 14.4557 86.0145 14.2973 86.244 14.1476C86.6767 13.8659 87.0828 13.6106 87.5154 13.3641C88.1247 12.9943 88.7339 12.651 89.3166 12.334L88.937 11.9643L87.2152 12.8975L86.2617 12.5453L85.1669 12.1315V9.9218C85.5554 9.66649 85.9174 9.41999 86.2705 9.18229M11.6105 6.11859L9.68568 7.22786L9.70334 2.07768L10.4803 1.6463L11.6105 2.90523L13.5441 5.01813L11.6016 6.11859H11.6105ZM9.04114 11.3392C8.83807 11.2864 8.64383 11.26 8.46724 11.2336H8.44958C8.25534 11.2071 8.06993 11.1983 7.89334 11.1983L7.92866 3.0725L8.50256 2.74676L9.07646 2.41222L9.04114 11.3304V11.3392ZM4.94438 7.04298L3.97316 6.44433L3.00194 5.84568L3.97316 5.28224L4.94438 4.7188V7.04298ZM18.0911 12.5717C17.7115 12.334 17.2523 11.6209 16.7226 10.4676C16.546 10.0715 16.4047 9.75453 16.2988 9.53444C15.928 8.75971 15.4423 8.09063 14.8243 7.52719C14.2063 6.95495 13.4734 6.48835 12.6082 6.1274L16.3782 4.04091C15.9809 3.61833 15.4423 3.05489 14.7802 2.33299C13.6147 1.08286 12.873 0.308131 12.5552 0L11.6458 0.475401L8.51139 2.16572L7.79622 2.54428C7.70793 1.75194 7.38125 1.13568 6.81617 0.704298C6.23344 0.272916 5.45647 0.0616261 4.47643 0.0528224C4.32633 0.0528224 4.14974 0.0528224 3.99965 0.0704298C3.56701 0.105645 3.13438 0.202486 2.71941 0.334542C2.12785 0.537027 1.55395 0.801139 1.00653 1.1797V1.48783C1.43034 1.4262 1.77468 1.35577 2.0837 1.32056C2.39272 1.28534 2.67526 1.25893 2.90482 1.25893C3.31979 1.25893 3.69062 1.32056 3.99082 1.45262C4.14974 1.53185 4.29101 1.60228 4.42345 1.70792C4.77662 2.00725 4.96203 2.38581 4.96203 2.90523V4.12895L3.98199 4.68358L0.538584 6.63801V6.77007C1.90712 7.25427 2.96663 7.86173 3.71711 8.61885C3.79657 8.70689 3.87604 8.78612 3.96433 8.89177C4.56472 9.56965 4.90906 10.3444 5.01501 11.2248C4.65301 11.304 4.30867 11.392 3.9555 11.5065C3.34628 11.7002 2.76355 11.9379 2.22497 12.2372C1.38619 12.6774 0.644535 13.2496 0 13.9451L0.105951 14.1124C1.03302 13.8042 1.94243 13.5577 2.85185 13.4169C3.22267 13.3376 3.5935 13.2936 3.9555 13.2584C4.47643 13.2056 4.97086 13.188 5.45647 13.188C6.28642 13.188 7.07222 13.2936 7.82271 13.5049C8.02578 13.5753 8.23768 13.637 8.45841 13.7162C9.02349 13.9275 9.62387 14.218 10.2684 14.579L11.5928 13.5137L13.1114 12.29L12.7053 11.9643L12.1402 12.4221C11.9725 12.334 11.7959 12.246 11.6016 12.1756C11.4339 12.0875 11.2396 12.0083 11.0542 11.9291C10.6569 11.7794 10.1978 11.6209 9.68568 11.4625V7.82652H9.75631C10.4627 7.82652 11.0895 7.98498 11.6281 8.30192C11.8135 8.38995 11.9725 8.52201 12.1402 8.65407C12.7936 9.19109 13.4116 10.1419 13.9943 11.4537C14.3917 12.3692 14.7625 13.0207 15.0803 13.4609C15.407 13.8923 15.7867 14.218 16.2193 14.4645H16.5725L19.1153 12.5277L18.7268 12.1756L18.1088 12.5805L18.0911 12.5717ZM29.2601 12.6686C29.0747 12.5893 28.9158 12.4837 28.801 12.3604C28.6774 12.2284 28.6244 12.1227 28.6244 12.0347L28.6421 5.8985L29.419 5.26463L27.3883 3.87364L25.4017 5.25583L26.1081 5.95132L26.0904 11.3832L24.1127 12.6245C23.8566 12.5013 23.6535 12.3428 23.4946 12.1668C23.3357 11.9819 23.2474 11.8146 23.2562 11.6385V5.87209L24.042 5.23822L21.9936 3.83843L19.3449 5.58156L19.7687 5.94252L20.3514 5.59037L20.7399 5.92491L20.7222 11.6737C20.7222 12.2108 20.8812 12.7126 21.1725 13.188C21.4904 13.6634 21.9053 14.0508 22.4439 14.3589L26.0816 12.0083V12.0875C26.0816 12.6157 26.214 13.0471 26.4701 13.4433C26.7349 13.8131 27.1411 14.1388 27.7062 14.3941L30.1342 12.695L29.7281 12.3692L29.2689 12.651L29.2601 12.6686ZM73.8036 12.8094C73.6182 12.7478 73.4858 12.6598 73.3798 12.5629C73.265 12.4573 73.2032 12.3428 73.1503 12.1932L73.1679 6.49715C73.2827 6.32108 73.4416 6.11859 73.6271 5.88969C73.8213 5.65199 74.0597 5.39669 74.3069 5.10616L73.9007 4.78042L72.8589 5.58156L71.1019 4.11134C70.3691 4.66598 69.7334 5.12377 69.1948 5.48472C68.665 5.85448 68.2059 6.145 67.7909 6.3739C67.6585 5.88089 67.4642 5.4319 67.1994 5.04454C66.9345 4.66598 66.5725 4.32263 66.1575 4.04091L62.3963 6.40911V6.32108C62.3963 5.75764 62.2815 5.30865 62.0166 4.93889C61.7517 4.58674 61.3191 4.26981 60.7275 3.99689L58.5202 5.74884L58.9264 6.10098L59.3678 5.81046C59.5444 5.92491 59.668 6.04816 59.7651 6.20663C59.8623 6.35629 59.8976 6.52356 59.8976 6.75246L59.8799 12.378L59.0941 13.0295L61.1337 14.5438L63.1114 13.0471L62.3786 12.3252L62.3963 7.02538L64.4093 5.77525C64.683 5.9073 64.9038 6.07457 65.0627 6.26826C65.2128 6.45313 65.2834 6.6204 65.2834 6.77007L65.2658 12.4045L64.4976 13.0559L66.546 14.5614L68.5149 13.0735L67.8086 12.3516L67.8351 6.95495L69.5656 5.86328L70.6604 6.70844L70.6428 11.8674C70.6428 12.6157 70.7576 13.188 70.9959 13.5753C71.2343 13.9627 71.6581 14.2885 72.2409 14.579L74.6954 12.8799L74.2716 12.5541L73.8125 12.827L73.8036 12.8094ZM98.0929 4.80684V3.50388H98.6491C98.7904 3.50388 98.8875 3.52149 98.9582 3.5391C99.02 3.56551 99.0641 3.60953 99.1082 3.66235C99.1436 3.72398 99.1612 3.7856 99.1612 3.86484C99.1612 3.96168 99.1347 4.04972 99.0729 4.11134C99.02 4.16416 98.9228 4.20818 98.8169 4.23459C98.8787 4.261 98.9228 4.30502 98.9582 4.34024C98.9935 4.38426 99.0464 4.45469 99.1082 4.55153L99.2672 4.80684H98.9493L98.7639 4.52512C98.7021 4.41947 98.6491 4.35785 98.6138 4.33143L98.5432 4.27861C98.5432 4.27861 98.4637 4.261 98.4019 4.261H98.3489V4.80684H98.0929ZM98.6138 3.00207C99.2672 3.00207 99.7969 3.52149 99.7881 4.16416C99.7881 4.79803 99.2583 5.31745 98.605 5.31745C97.9516 5.31745 97.413 4.79803 97.4219 4.15536C97.4219 3.52149 97.9604 3.00207 98.605 3.00207M98.6138 2.80839C99.3731 2.80839 100 3.40704 100 4.16416C100 4.90368 99.3731 5.50233 98.6138 5.50233C97.8545 5.50233 97.2364 4.89487 97.2364 4.14656C97.2364 3.39824 97.8545 2.79959 98.6226 2.79959" fill="#FDFAEE"/>
</svg>
