<?xml version="1.0" encoding="UTF-8"?>
<svg xmlns="http://www.w3.org/2000/svg" xml:space="preserve" width="7.32292in" height="4.16667in" version="1.1" style="shape-rendering:geometricPrecision; text-rendering:geometricPrecision; image-rendering:optimizeQuality; fill-rule:evenodd; clip-rule:evenodd"
viewBox="0 0 7323 4167"
 xmlns:xlink="http://www.w3.org/1999/xlink">
 <defs>
  <style type="text/css">
   <![CDATA[
    .str0 {stroke:#4E4E4E;stroke-width:10.4173}
    .fil0 {fill:none}
    .fil1 {fill:#4E3093}
    .fil2 {fill:#FBFBFB}
    .fil3 {fill:#373435;fill-rule:nonzero}
   ]]>
  </style>
 </defs>
 <g id="Layer_x0020_1">
  <metadata id="CorelCorpID_0Corel-Layer"/>
  <path class="fil0 str0" d="M2083 4161c1148,0 2078,-930 2078,-2078 0,-1148 -930,-2078 -2078,-2078 -1148,0 -2078,930 -2078,2078 0,1148 930,2078 2078,2078z"/>
  <path class="fil0 str0" d="M5240 4161c1148,0 2078,-930 2078,-2078 0,-1148 -930,-2078 -2078,-2078 -1148,0 -2078,930 -2078,2078 0,1148 930,2078 2078,2078z"/>
  <path class="fil1" d="M3665 724c314,365 504,839 504,1358 0,519 -190,993 -504,1358 -314,-365 -504,-839 -504,-1358 0,-519 190,-993 504,-1358z"/>
  <path class="fil2" d="M3522 2046c21,0 39,14 39,42l0 77 -56 0 0 -68c0,-7 -4,-12 -9,-12 -6,0 -9,4 -9,12l0 68 -54 0 0 -68c0,-7 -4,-12 -9,-12 -6,0 -9,4 -9,12l0 68 -55 0 0 -115 54 0 0 20c6,-12 20,-24 39,-24 15,0 27,8 33,24 6,-13 19,-24 38,-24zm95 68c0,2 -1,4 -1,6 0,7 3,11 10,11 9,0 16,-9 18,-22l13 -62 47 0 -24 119 -45 0 3 -20c-8,10 -23,20 -41,20 -18,0 -31,-11 -31,-32 0,-4 0,-7 1,-12l16 -75 0 0 47 0 -14 68zm268 -45c6,-12 20,-23 39,-23 22,0 39,14 39,42l0 77 -56 0 0 -69c0,-7 -4,-12 -10,-12 -6,0 -10,5 -10,12l0 69 -56 0 0 -160 54 0 0 63zm-122 -27c20,0 35,3 44,10 9,6 15,14 16,23l-50 6c-1,-7 -6,-11 -13,-11 -6,0 -9,3 -9,7 0,4 4,6 14,7l17 3c30,5 45,18 45,38 0,24 -21,40 -65,40 -22,0 -38,-4 -48,-11 -9,-7 -15,-16 -16,-26l51 -4 0 0c0,8 5,12 14,12 8,0 12,-3 12,-7 0,-5 -4,-7 -12,-8l-13 -2c-32,-6 -46,-14 -46,-37 0,-21 20,-39 59,-39z"/>
  <polygon class="fil3" points="1413,2025 1354,2025 1354,2059 1405,2059 1405,2072 1354,2072 1354,2122 1339,2122 1339,2012 1413,2012 "/>
  <path id="1" class="fil3" d="M1481 2112c-7,8 -15,12 -24,12 -18,0 -27,-10 -27,-29l0 -52 14 0 0 51c0,6 1,11 3,14 2,3 6,4 11,4 8,0 15,-4 22,-13l0 -57 14 0 0 79 -14 0 0 -10z"/>
  <path id="2" class="fil3" d="M1530 2053c7,-8 15,-12 24,-12 18,0 27,10 27,29l0 52 -14 0 0 -51c0,-6 -1,-11 -3,-14 -2,-3 -6,-4 -11,-4 -7,0 -14,4 -22,13l0 57 -14 0 0 -79 14 0 0 10z"/>
  <path id="3" class="fil3" d="M1633 2124c-11,0 -20,-4 -27,-11 -7,-7 -10,-17 -10,-31 0,-13 3,-23 10,-31 7,-7 16,-11 27,-11 9,0 16,2 22,7 6,4 9,11 10,19l-15 0c0,-5 -2,-8 -5,-11 -3,-2 -7,-4 -12,-4 -7,0 -12,3 -16,8 -4,5 -6,13 -6,23 0,10 2,18 6,23 4,5 10,8 16,8 5,0 9,-1 12,-4 3,-3 5,-6 5,-11l15 0c-1,8 -4,15 -10,19 -6,4 -13,7 -22,7z"/>
  <path id="4" class="fil3" d="M1709 2122c-3,1 -6,1 -10,1 -6,0 -10,-1 -13,-3 -3,-2 -4,-5 -5,-8 -1,-3 -1,-8 -1,-13l0 -45 -10 0 0 -11 10 0 0 -20 14 0 0 20 13 0 0 11 -13 0 0 46c0,5 1,9 2,10 1,1 3,2 6,2 2,0 5,0 7,-1l0 11z"/>
  <path id="5" class="fil3" d="M1735 2122l-14 0 0 -79 14 0 0 79zm0 -94l-14 0 0 -15 14 0 0 15z"/>
  <path id="6" class="fil3" d="M1788 2041c11,0 20,4 27,11 7,7 10,17 10,31 0,13 -3,23 -10,31 -7,7 -16,11 -27,11 -11,0 -20,-4 -27,-11 -7,-7 -10,-17 -10,-31 0,-13 3,-23 10,-31 7,-7 16,-11 27,-11zm0 72c7,0 12,-3 16,-8 4,-5 6,-13 6,-23 0,-10 -2,-18 -6,-23 -4,-5 -10,-8 -16,-8 -7,0 -12,3 -16,8 -4,5 -6,13 -6,23 0,10 2,18 6,23 4,5 10,8 16,8z"/>
  <path id="7" class="fil3" d="M1855 2053c7,-8 15,-12 24,-12 18,0 27,10 27,29l0 52 -14 0 0 -51c0,-6 -1,-11 -3,-14 -2,-3 -6,-4 -11,-4 -7,0 -14,4 -22,13l0 57 -14 0 0 -79 14 0 0 10z"/>
  <path id="8" class="fil3" d="M1976 2101l0 -18 -10 0c-20,0 -31,6 -31,17 0,4 1,7 4,9 3,2 7,3 12,3 5,0 9,-1 13,-3 4,-2 8,-5 10,-9zm0 13c-7,7 -16,10 -28,10 -8,0 -14,-2 -19,-6 -5,-4 -8,-10 -8,-16 0,-19 16,-28 48,-28l7 0c0,-6 0,-10 -1,-12 -1,-3 -2,-5 -5,-6 -3,-2 -7,-3 -13,-3 -13,0 -19,4 -19,13l-14 0c1,-16 12,-24 34,-24 10,0 18,2 24,6 6,4 9,12 9,24l0 51 -14 0 0 -8z"/>
  <polygon id="9" class="fil3" points="2025,2122 2011,2122 2011,2012 2025,2012 "/>
  <path id="10" class="fil3" d="M2060 2122l-14 0 0 -79 14 0 0 79zm0 -94l-14 0 0 -15 14 0 0 15z"/>
  <path id="11" class="fil3" d="M2112 2122c-3,1 -6,1 -10,1 -6,0 -10,-1 -13,-3 -3,-2 -4,-5 -5,-8 -1,-3 -1,-8 -1,-13l0 -45 -10 0 0 -11 10 0 0 -20 14 0 0 20 13 0 0 11 -13 0 0 46c0,5 1,9 2,10 1,1 3,2 6,2 2,0 5,0 7,-1l0 11z"/>
  <path id="12" class="fil3" d="M2128 2141c7,0 13,-6 17,-19l-30 -79 15 0 21 62 21 -62 15 0 -30 79c-3,8 -5,13 -7,18 -2,4 -5,8 -8,10 -3,3 -7,4 -12,4 -4,0 -7,0 -9,-1l0 -13c2,1 4,1 7,1z"/>
  <path class="fil3" d="M5158 2092l-19 -51 -18 51 38 0zm33 45l-16 0 -13 -33 -46 0 -12 33 -15 0 42 -110 16 0 45 110z"/>
  <path id="1" class="fil3" d="M5235 2139c-12,0 -21,-4 -28,-11 -7,-7 -11,-17 -11,-31 0,-13 3,-23 10,-30 7,-7 16,-11 27,-11 11,0 20,4 27,11 7,7 10,17 10,31l0 3 -60 0c1,9 3,16 8,20 4,4 10,7 16,7 5,0 9,-1 13,-4 4,-3 6,-6 6,-11l15 0c-1,8 -5,15 -11,19 -6,4 -14,7 -23,7zm21 -49c-1,-8 -4,-13 -8,-17 -4,-4 -9,-6 -15,-6 -6,0 -10,2 -15,6 -4,4 -7,9 -8,17l45 0z"/>
  <path id="2" class="fil3" d="M5315 2139c-22,0 -33,-9 -34,-26l14 0c0,10 7,15 20,15 6,0 10,-1 13,-4 3,-2 5,-5 5,-9 0,-4 -2,-6 -4,-8 -3,-1 -9,-3 -19,-6 -9,-2 -16,-5 -21,-8 -4,-3 -6,-8 -6,-15 0,-7 3,-12 8,-16 5,-4 13,-6 21,-6 21,0 31,7 32,22l-14 0c0,-7 -6,-11 -17,-11 -5,0 -9,1 -12,3 -3,2 -5,4 -5,8 0,3 1,5 4,7 2,1 8,3 18,6 10,2 17,5 21,8 5,3 7,8 7,16 0,7 -3,13 -9,18 -6,5 -14,7 -23,7z"/>
  <path id="3" class="fil3" d="M5394 2137c-3,1 -6,1 -10,1 -6,0 -10,-1 -13,-3 -3,-2 -4,-5 -5,-8 -1,-3 -1,-8 -1,-13l0 -45 -10 0 0 -11 10 0 0 -20 14 0 0 20 13 0 0 11 -13 0 0 46c0,5 1,9 2,10 1,1 3,2 6,2 2,0 5,0 7,-1l0 11z"/>
  <path id="4" class="fil3" d="M5420 2068c7,-8 15,-12 24,-12 18,0 27,10 27,29l0 52 -14 0 0 -51c0,-6 -1,-11 -3,-14 -2,-3 -6,-4 -11,-4 -7,0 -14,4 -22,13l0 57 -14 0 0 -110 14 0 0 40z"/>
  <path id="5" class="fil3" d="M5525 2139c-12,0 -21,-4 -28,-11 -7,-7 -11,-17 -11,-31 0,-13 3,-23 10,-30 7,-7 16,-11 27,-11 11,0 20,4 27,11 7,7 10,17 10,31l0 3 -60 0c1,9 3,16 8,20 4,4 10,7 16,7 5,0 9,-1 13,-4 4,-3 6,-6 6,-11l15 0c-1,8 -5,15 -11,19 -6,4 -14,7 -23,7zm21 -49c-1,-8 -4,-13 -8,-17 -4,-4 -9,-6 -15,-6 -6,0 -10,2 -15,6 -4,4 -7,9 -8,17l45 0z"/>
  <path id="6" class="fil3" d="M5607 2137c-3,1 -6,1 -10,1 -6,0 -10,-1 -13,-3 -3,-2 -4,-5 -5,-8 -1,-3 -1,-8 -1,-13l0 -45 -10 0 0 -11 10 0 0 -20 14 0 0 20 13 0 0 11 -13 0 0 46c0,5 1,9 2,10 1,1 3,2 6,2 2,0 5,0 7,-1l0 11z"/>
  <path id="7" class="fil3" d="M5633 2137l-14 0 0 -79 14 0 0 79zm0 -94l-14 0 0 -15 14 0 0 15z"/>
  <path id="8" class="fil3" d="M5686 2139c-11,0 -20,-4 -27,-11 -7,-7 -10,-17 -10,-31 0,-13 3,-23 10,-31 7,-7 16,-11 27,-11 9,0 16,2 22,7 6,4 9,11 10,19l-15 0c0,-5 -2,-8 -5,-11 -3,-2 -7,-4 -12,-4 -7,0 -12,3 -16,8 -4,5 -6,13 -6,23 0,10 2,18 6,23 4,5 10,8 16,8 5,0 9,-1 12,-4 3,-3 5,-6 5,-11l15 0c-1,8 -4,15 -10,19 -6,4 -13,7 -22,7z"/>
  <path id="9" class="fil3" d="M5759 2139c-22,0 -33,-9 -34,-26l14 0c0,10 7,15 20,15 6,0 10,-1 13,-4 3,-2 5,-5 5,-9 0,-4 -2,-6 -4,-8 -3,-1 -9,-3 -19,-6 -9,-2 -16,-5 -21,-8 -4,-3 -6,-8 -6,-15 0,-7 3,-12 8,-16 5,-4 13,-6 21,-6 21,0 31,7 32,22l-14 0c0,-7 -6,-11 -17,-11 -5,0 -9,1 -12,3 -3,2 -5,4 -5,8 0,3 1,5 4,7 2,1 8,3 18,6 10,2 17,5 21,8 5,3 7,8 7,16 0,7 -3,13 -9,18 -6,5 -14,7 -23,7z"/>
 </g>
</svg>
